<?xml version="1.0" encoding="UTF-8" standalone="no"?>
<svg
   id="Layer_1"
   data-name="Layer 1"
   viewBox="0 0 698.40002 406.01001"
   version="1.1"
   width="698.40002"
   height="406.01001"
   xmlns="http://www.w3.org/2000/svg"
   xmlns:svg="http://www.w3.org/2000/svg">
  <defs
     id="defs1">
    <style
       id="style1">.cls-1{fill:#d95d39;stroke-width:0}</style>
  </defs>
  <path
     d="M 5.55,82.13 H 152.77 L 94.48,117.56 C 23.89,160.47 0,208.7 0,271.37 0,349.62 58.78,402.72 144.34,403.81 l 140.91,0.09 V 321.68 H 147.22 c -0.99,0 -1.89,0 -2.88,-0.09 -31.46,-1.17 -52.29,-22.99 -52.29,-54.55 0,-28.85 14.06,-54 57.07,-81.59 l 47.3,-30.35 v 126.2 h 88.83 V 0 H 5.55 Z M 442.4,102.36 H 377.09 L 441.14,16.74 V 0 h -95.16 v 21.77 h 63.34 l -64.06,85.63 v 16.73 H 442.4 Z M 468.53,120 c 7.55,4.19 15.94,6.3 25.18,6.3 11.15,0 20.96,-2.91 29.41,-8.73 8.46,-5.81 14.42,-13.4 17.9,-22.76 h -23.75 c -1.91,3.48 -4.98,6.35 -9.17,8.63 -4.2,2.28 -8.99,3.42 -14.39,3.42 -5.4,0 -9.77,-1.23 -13.85,-3.69 -4.08,-2.45 -7.29,-5.84 -9.63,-10.16 a 28,28 0 0 1 -2.6,-6.84 h 74.47 c 0.36,-2.16 0.54,-4.74 0.54,-7.73 0,-9 -2.13,-17.18 -6.38,-24.56 C 532,46.5 526.1,40.72 518.54,36.52 c -7.56,-4.19 -15.9,-6.3 -25.01,-6.3 -9.11,0 -17.45,2.1 -25,6.3 -7.56,4.2 -13.46,9.96 -17.72,17.27 -4.26,7.32 -6.39,15.47 -6.39,24.46 0,8.99 2.13,17.16 6.39,24.46 4.25,7.32 10.16,13.07 17.72,17.28 z m 1.71,-56.5 c 2.34,-4.31 5.55,-7.7 9.63,-10.16 4.08,-2.46 8.63,-3.69 13.67,-3.69 5.04,0 9.38,1.17 13.41,3.51 4.02,2.34 7.19,5.55 9.53,9.63 1.18,2.06 2.1,4.28 2.74,6.65 h -51.33 c 0.57,-2.09 1.35,-4.07 2.36,-5.94 z M 573.7,79.88 q 0,-7.905 3.15,-13.86 c 2.1,-3.96 5.22,-7.04 9.36,-9.26 4.14,-2.21 9.08,-3.33 14.84,-3.33 V 30.95 c -6.36,0 -12.15,1.74 -17.36,5.21 -3.83,2.55 -7.16,5.89 -9.99,10 V 32.39 h -21.95 v 91.74 H 573.7 Z M 692.02,53.79 c -4.26,-7.31 -10.14,-13.07 -17.63,-17.27 -7.49,-4.19 -15.86,-6.3 -25.09,-6.3 -9.23,0 -17.78,2.1 -25.27,6.3 -7.49,4.2 -13.37,9.96 -17.63,17.27 -4.26,7.32 -6.39,15.47 -6.39,24.46 0,8.99 2.13,17.16 6.39,24.46 4.25,7.32 10.13,13.07 17.63,17.28 7.49,4.19 15.92,6.3 25.27,6.3 9.35,0 17.6,-2.1 25.09,-6.3 7.49,-4.2 13.37,-9.95 17.63,-17.28 4.25,-7.31 6.38,-15.47 6.38,-24.46 0,-8.99 -2.13,-17.14 -6.38,-24.46 m -19.61,38.14 c -2.34,4.08 -5.55,7.28 -9.63,9.62 -4.08,2.34 -8.63,3.51 -13.67,3.51 -5.04,0 -9.56,-1.17 -13.58,-3.51 -4.02,-2.34 -7.19,-5.55 -9.53,-9.62 -2.34,-4.08 -3.51,-8.63 -3.51,-13.68 0,-5.05 1.17,-9.59 3.51,-13.67 2.34,-4.08 5.55,-7.28 9.62,-9.62 4.08,-2.34 8.63,-3.51 13.67,-3.51 5.04,0 9.56,1.17 13.58,3.51 4.02,2.34 7.2,5.55 9.54,9.62 2.34,4.08 3.51,8.63 3.51,13.67 0,5.04 -1.17,9.6 -3.51,13.68 M 452.77,266.91 h 22.67 l 21.58,-65.89 21.59,65.89 h 22.66 l 33.65,-91.74 h -24.29 l -20.55,64.48 -21.54,-64.48 h -22.31 l -21.55,64.48 -20.54,-64.48 h -25.01 z m 191.9,-87.61 c -7.49,-4.19 -15.86,-6.3 -25.09,-6.3 -9.23,0 -17.78,2.1 -25.27,6.3 -7.49,4.2 -13.37,9.96 -17.63,17.27 -4.26,7.32 -6.39,15.47 -6.39,24.46 0,8.99 2.13,17.16 6.39,24.46 4.25,7.32 10.13,13.07 17.63,17.27 7.49,4.19 15.92,6.3 25.27,6.3 9.35,0 17.6,-2.1 25.09,-6.3 7.49,-4.2 13.37,-9.95 17.63,-17.27 4.25,-7.31 6.38,-15.47 6.38,-24.46 0,-8.99 -2.13,-17.14 -6.38,-24.46 -4.26,-7.31 -10.14,-13.07 -17.63,-17.27 m -1.97,55.41 c -2.34,4.08 -5.55,7.28 -9.63,9.62 -4.08,2.34 -8.63,3.51 -13.67,3.51 -5.04,0 -9.56,-1.17 -13.58,-3.51 -4.02,-2.34 -7.19,-5.55 -9.53,-9.62 -2.34,-4.08 -3.51,-8.63 -3.51,-13.68 0,-5.05 1.17,-9.59 3.51,-13.67 2.34,-4.08 5.55,-7.28 9.62,-9.62 4.08,-2.34 8.63,-3.51 13.67,-3.51 5.04,0 9.56,1.17 13.58,3.51 4.02,2.34 7.2,5.55 9.54,9.62 2.34,4.08 3.51,8.63 3.51,13.67 0,5.04 -1.17,9.6 -3.51,13.68 m -208.42,51.31 c -9.95,-5.64 -21.05,-8.46 -33.28,-8.46 -12.23,0 -23.32,2.82 -33.28,8.46 -9.96,5.63 -17.81,13.34 -23.56,23.11 -5.76,9.77 -8.64,20.66 -8.64,32.65 0,11.99 2.88,22.88 8.64,32.65 5.75,9.78 13.6,17.48 23.56,23.12 9.95,5.64 21.05,8.46 33.28,8.46 12.23,0 23.33,-2.82 33.28,-8.46 9.95,-5.64 17.78,-13.34 23.48,-23.12 5.69,-9.77 8.54,-20.65 8.54,-32.65 0,-12 -2.85,-22.87 -8.54,-32.65 -5.7,-9.77 -13.52,-17.48 -23.48,-23.11 m 2.79,77.08 c -3.66,6.42 -8.63,11.46 -14.93,15.11 -6.3,3.66 -13.35,5.49 -21.14,5.49 -7.79,0 -14.87,-1.83 -21.22,-5.49 -6.36,-3.66 -11.34,-8.67 -14.94,-15.02 -3.59,-6.35 -5.39,-13.49 -5.39,-21.41 0,-7.92 1.8,-14.9 5.39,-21.32 3.6,-6.41 8.57,-11.45 14.94,-15.11 6.35,-3.66 13.43,-5.49 21.22,-5.49 7.79,0 14.87,1.83 21.22,5.49 6.35,3.66 11.34,8.67 14.94,15.02 3.6,6.35 5.39,13.49 5.39,21.4 0,7.91 -1.83,14.9 -5.49,21.32 z m 108.11,-48.75 c -5.46,-2.94 -11.73,-4.41 -18.8,-4.41 -7.07,0 -13.37,1.53 -18.89,4.59 -4.22,2.34 -7.87,5.5 -10.97,9.45 V 312.1 h -21.95 v 91.74 h 21.95 v -50.55 q 0,-6.66 2.79,-11.7 c 1.86,-3.35 4.5,-5.94 7.92,-7.73 3.41,-1.8 7.4,-2.7 11.96,-2.7 6.47,0 11.66,1.97 15.56,5.93 3.9,3.96 5.84,9.24 5.84,15.83 v 50.91 h 21.77 v -58.11 c 0,-7.07 -1.5,-13.34 -4.49,-18.79 -3,-5.46 -7.23,-9.65 -12.68,-12.6 z m 99.41,1.89 c -7.56,-4.19 -15.9,-6.3 -25.01,-6.3 -9.11,0 -17.45,2.1 -25,6.3 -7.56,4.2 -13.46,9.96 -17.72,17.27 -4.26,7.32 -6.39,15.47 -6.39,24.46 0,8.99 2.13,17.16 6.39,24.46 4.25,7.32 10.16,13.07 17.72,17.28 7.55,4.19 15.94,6.3 25.18,6.3 11.15,0 20.96,-2.91 29.41,-8.73 8.46,-5.81 14.42,-13.4 17.9,-22.76 h -23.75 c -1.91,3.48 -4.98,6.35 -9.17,8.63 -4.2,2.28 -8.99,3.42 -14.39,3.42 -5.4,0 -9.77,-1.23 -13.85,-3.69 -4.08,-2.45 -7.29,-5.84 -9.63,-10.16 a 28,28 0 0 1 -2.6,-6.84 h 74.47 c 0.36,-2.16 0.54,-4.74 0.54,-7.73 0,-9 -2.13,-17.18 -6.38,-24.56 -4.26,-7.38 -10.17,-13.16 -17.72,-17.36 z m -50.67,32.92 c 0.57,-2.09 1.35,-4.07 2.36,-5.94 2.34,-4.31 5.55,-7.7 9.63,-10.16 4.08,-2.46 8.63,-3.69 13.67,-3.69 5.04,0 9.38,1.17 13.41,3.51 4.02,2.34 7.19,5.55 9.53,9.63 1.18,2.06 2.1,4.28 2.74,6.65 h -51.33 z"
     class="cls-1"
     id="path1" />
  <path
     d="m 382.2,266.91 h 23.2 V 164.55 h 37 v -21.76 h -97.2 v 21.76 h 37 z"
     class="cls-1"
     id="path2" />
</svg>
