<?xml version="1.0" encoding="UTF-8" standalone="no"?>
<svg
   width="151.996"
   height="51.304798"
   viewBox="0 0 151.996 51.304798"
   fill="none"
   version="1.1"
   id="svg48"
   xmlns="http://www.w3.org/2000/svg"
   xmlns:svg="http://www.w3.org/2000/svg">
  <defs
     id="defs48" />
  <path
     d="m 60.773,23.8421 -3.456,-1.012 -5.507,2.39 1.505,4.131 z"
     fill="#d95d39"
     id="path1" />
  <path
     d="m 56.224,22.5899 -6.924,-1.44 2.22,3.48 z"
     fill="#d95d39"
     id="path2" />
  <path
     d="m 66.386,22.2151 1.062,-2.388 -8.107,-0.457 -1.551,2.92 3.724,1.092 z"
     fill="#d95d39"
     id="path3" />
  <path
     d="m 58.719,18.7708 -0.335,-2.261 -5.044,0.988 1.615,1.834 z"
     fill="#d95d39"
     id="path4" />
  <path
     d="m 55.46,19.9022 1.75,1.99 1.293,-2.442 z"
     fill="#d95d39"
     id="path5" />
  <path
     d="m 48.316,20.9022 -8.276,-5.722 2.74,10.008 7.994,-0.428 z"
     fill="#d95d39"
     id="path6" />
  <path
     d="m 48.75,20.3901 7.587,1.572 L 39.09,2.37012 39.805,14.2001 Z"
     fill="#d95d39"
     id="path7" />
  <path
     d="m 72.19,22.5088 1.597,-0.12 0.018,-0.839 -1.377,0.388 z"
     fill="#d95d39"
     id="path8" />
  <path
     d="m 72.42,21.2702 1.08,-0.31 -3.273,-2.76 -1.617,1.292 z"
     fill="#d95d39"
     id="path9" />
  <path
     d="M 38.77,35.02 40.146,35.973 43.648,30.64 42.284,26 Z"
     fill="#d95d39"
     id="path10" />
  <path
     d="m 71.763,21.7028 -1.853,-0.863 1.603,1.452 z"
     fill="#d95d39"
     id="path11" />
  <path
     d="m 50.332,25.4302 -7.362,0.388 1.256,4.286 z"
     fill="#d95d39"
     id="path12" />
  <path
     d="m 67.845,19.2068 1.538,-1.234 -10.283,-1.463 0.335,2.228 z"
     fill="#d95d39"
     id="path13" />
  <path
     d="m 68.094,20.1099 -0.984,2.212 3.255,1.32 0.792,-0.76 z"
     fill="#d95d39"
     id="path14" />
  <path
     d="m 70.98,23.9841 2.041,1.39 -1.416,-1.984 z"
     fill="#d95d39"
     id="path15" />
  <path
     d="m 44.66,30.6121 7.63,3.612 0.49,-4.302 -1.575,-4.322 z"
     fill="#d95d39"
     id="path16" />
  <path
     d="m 53.485,30.0598 -0.445,3.87 8.508,-7.024 -0.322,-2.566 z"
     fill="#d95d39"
     id="path17" />
  <path
     d="m 74.17,26.1878 0.172,1.051 0.631,-1.229 z"
     fill="#d95d39"
     id="path18" />
  <path
     d="m 73.899,23.02 -1.629,0.126 1.719,2.4 0.893,-0.199 z"
     fill="#d95d39"
     id="path19" />
  <path
     d="m 61.9,23.9518 0.329,2.606 7.304,-2.555 -2.91,-1.183 z"
     fill="#d95d39"
     id="path20" />
  <path
     d="m 39.223,14.8701 -16.023,8.916 18.841,1.377 z"
     fill="#d95d39"
     id="path21" />
  <path
     d="m 40.82,36.2101 1.897,0.274 8.849,-1.875 -7.408,-3.509 z"
     fill="#d95d39"
     id="path22" />
  <path
     d="m 38.433,35.6001 -5.573,8.231 3.127,3.52 3.843,-10.78 z"
     fill="#d95d39"
     id="path23" />
  <path
     d="m 43.22,48.0538 2.807,-2.452 -3.147,-8.532 z"
     fill="#d95d39"
     id="path24" />
  <path
     d="m 40.507,36.7998 -3.977,11.149 2.973,3.356 3.017,-2.64 -0.353,-11.614 z"
     fill="#d95d39"
     id="path25" />
  <path
     d="M 39.062,13.9031 26.05,9.91012 v -1.435 h 2.819 v -2.212 h -2.432 v -2.43 h 2.227 v -1.463 h 9.71 z M 32.068,4.16012 h -1.454 v 1.292 h 1.454 z m 3.744,2.217 h -1.66 v 1 h -1.86 v 2.08 h 2.342 v -1.612 h 1.178 z"
     fill="#d95d39"
     id="path26" />
  <path
     d="m 17.74,8.3559 h -1.88 v 2.377 h 2.676 v -1.537 h 1.7 v -2.852 h -2.04 v -1.194 h -1.739 v 1.55 h 1.282 z"
     fill="#d95d39"
     id="path27" />
  <path
     d="M 15.925,13.2202 H 13.08 v 2.532 h 2.845 z"
     fill="#d95d39"
     id="path28" />
  <path
     d="M 7.768,8.47021 H 5.42 v 2.08499 h 2.348 z"
     fill="#d95d39"
     id="path29" />
  <path
     d="M 19.282,16.9199 H 16.74 v 2.258 h 2.542 z"
     fill="#d95d39"
     id="path30" />
  <path
     d="M 4.778,2.97998 H 2.43 v 2.085 h 2.348 z"
     fill="#d95d39"
     id="path31" />
  <path
     d="M 5.867,0.299805 H 4.36 V 1.6378 h 1.507 z"
     fill="#d95d39"
     id="path32" />
  <path
     d="M 1.062,1.68018 H 0 v 0.943 h 1.062 z"
     fill="#d95d39"
     id="path33" />
  <path
     d="m 20.55,3.55994 v 1.887 h 2.124 v -1.148 h 2.734 v -2.859 h -3.217 v 2.12 z"
     fill="#d95d39"
     id="path34" />
  <path
     d="m 19.764,1.418 h 0.973 V 0 h -1.59 V 0.954 H 17.59 V 2.88 h 2.174 z"
     fill="#d95d39"
     id="path35" />
  <path
     d="m 10.806,11.966 h 3.25 V 9.08002 H 11.45 v -1.31 H 9.32 v 1.893 h 1.486 z"
     fill="#d95d39"
     id="path36" />
  <path
     d="M 25.047,7.08008 H 21.9 v 2.795 h 3.147 z"
     fill="#d95d39"
     id="path37" />
  <path
     d="M 12.823,0.310059 H 11.24 V 1.71606 h 1.583 z"
     fill="#d95d39"
     id="path38" />
  <path
     d="M 9.32,1.02002 H 7.28 v 1.811 h 2.04 z"
     fill="#d95d39"
     id="path39" />
  <path
     d="M 13.356,7.76706 H 15.1 v -1.914 h -1.178 v -1.125 h 2.014 v -2.418 H 12.97 v 1.817 h -1.73 v 2.247 h 2.116 z"
     fill="#d95d39"
     id="path40" />
  <path
     d="M 9.323,4.20996 H 6.6 v 2.418 h 2.723 z"
     fill="#d95d39"
     id="path41" />
  <path
     d="M 11.519,13.5801 H 9.91 v 1.423 h 1.609 z"
     fill="#d95d39"
     id="path42" />
  <path
     d="m 22.158,23.6278 -2.245,-2.235 H 18.6 v -1.307 l -0.052,-0.052 h 4.424 v -2.098 h 0.801 v -1.41 h -1.589 v 1.038 h -1.262 v -1.702 H 19.16 v -1.51 h -1.95 v -2.376 h 2.246 v -1.406 h 2.121 v 1.891 h -1.699 v 1.171 h 1.99 v 1.246 h 3.405 v -1.51 h -1.352 v -1.93 h 2.13 v -0.847 l 12.569,3.86 z m 8.362,-8.402 h 2.098 v -1.863 H 30.52 Z m -5.697,4.162 h 1.725 v -0.99 h 2.035 v -2.245 h -2.528 v 1.703 h -1.236 z"
     fill="#d95d39"
     id="path43" />
  <path
     d="M 73.992,43.2842 H 65.62 l -1.719,2.468 H 60.8 l 7.012,-9.916 c 0.2,-0.29 0.458,-0.545 0.759,-0.755 0.377,-0.219 0.824,-0.323 1.274,-0.297 0.445,-0.025 0.888,0.08 1.26,0.297 0.303,0.208 0.56,0.464 0.76,0.755 l 6.983,9.916 H 75.73 Z m -7.112,-1.842 h 5.844 L 69.8,37.2072 Z"
     fill="#d95d39"
     id="path44" />
  <path
     d="m 86.432,45.7638 c -0.7428,0.0141 -1.4851,-0.0513 -2.214,-0.195 -0.5145,-0.0941 -0.9992,-0.3094 -1.414,-0.628 -0.3581,-0.2941 -0.6206,-0.6882 -0.754,-1.132 -0.1594,-0.561 -0.2329,-1.143 -0.218,-1.726 v -7.053 h 2.676 v 6.955 c -0.006,0.268 0.027,0.535 0.097,0.796 0.057,0.203 0.178,0.388 0.348,0.533 0.188,0.154 0.42,0.26 0.67,0.308 0.345,0.07 0.699,0.1 1.053,0.093 h 7.176 v 2.046 z"
     fill="#d95d39"
     id="path45" />
  <path
     d="m 100.457,42.697 v 3.069 H 97.76 V 35.032 h 9.678 c 0.726,-0.013 1.45,0.047 2.162,0.178 0.516,0.094 0.997,0.3 1.402,0.6 0.36,0.289 0.622,0.663 0.753,1.08 0.158,0.521 0.232,1.06 0.219,1.6 v 0.926 c 0.015,0.5377 -0.057,1.0742 -0.213,1.589 -0.124,0.393 -0.38,0.745 -0.733,1.007 -0.416,0.2827 -0.892,0.4655 -1.39,0.534 -0.726,0.1118 -1.46,0.1617 -2.194,0.149 z m 8.828,-4.11 c 0,-0.577 -0.142,-0.972 -0.418,-1.176 -0.277,-0.205 -0.78,-0.315 -1.501,-0.315 h -6.91 v 3.668 h 6.942 c 0.71,0 1.202,-0.097 1.475,-0.291 0.272,-0.194 0.4,-0.577 0.4,-1.143 v -0.743 z"
     fill="#d95d39"
     id="path46" />
  <path
     d="m 127.601,45.7638 v -4.28 h -8.854 v 4.28 h -2.697 v -10.734 h 2.697 v 4.373 h 8.86 v -4.373 h 2.687 v 10.734 z"
     fill="#d95d39"
     id="path47" />
  <path
     d="m 147.136,43.2931 h -8.366 l -1.717,2.4681 h -3.103 l 7.012,-9.916 c 0.2,-0.29 0.458,-0.545 0.759,-0.754 0.294,-0.2 0.72,-0.2971 1.274,-0.2971 0.445,-0.025 0.887,0.0801 1.26,0.2971 0.303,0.208 0.56,0.464 0.76,0.754 l 6.981,9.916 h -3.109 z m -7.104,-1.8409 h 5.85 l -2.923,-4.2351 z"
     fill="#d95d39"
     id="path48" />
</svg>
