<svg width="9" height="708" viewBox="0 0 9 708" fill="none" xmlns="http://www.w3.org/2000/svg">
<rect x="4" y="455" width="1" height="162" fill="#9C8F88"/>
<rect x="2" y="474" width="5" height="124" fill="#9C8F88"/>
<path d="M7 474C7 464.5 5 464.5 5 455V474H7Z" fill="#9C8F88"/>
<path d="M2 474C2 464.5 4 464.5 4 455V474H2Z" fill="#9C8F88"/>
<path d="M7 598C7 607.5 5 607.5 5 617V598H7Z" fill="#9C8F88"/>
<path d="M2 598C2 607.5 4 607.5 4 617V598H2Z" fill="#9C8F88"/>
<mask id="path-7-inside-1_369_1884" fill="white">
<path d="M5 352C5 355.87 7 355.871 7 359.741V410.259C7 414.129 5 414.13 5 418H4C4 414.13 2 414.129 2 410.259V359.741C2 355.871 4 355.87 4 352H5Z"/>
</mask>
<path d="M5 352C5 355.87 7 355.871 7 359.741V410.259C7 414.129 5 414.13 5 418H4C4 414.13 2 414.129 2 410.259V359.741C2 355.871 4 355.87 4 352H5Z" fill="#DAD2BF"/>
<path d="M5 352H6V351H5V352ZM5 418V419H6L6 418L5 418ZM4 418L3 418L3 419H4V418ZM4 352V351H3V352H4ZM5 352H4C4 354.169 4.58241 355.305 5.11158 356.33C5.58241 357.241 6 358.04 6 359.741H7H8C8 357.572 7.41759 356.436 6.88842 355.412C6.41759 354.5 6 353.701 6 352H5ZM7 359.741H6V410.259H7H8V359.741H7ZM7 410.259H6C6 411.96 5.58241 412.759 5.11158 413.67C4.58241 414.695 4 415.831 4 418L5 418L6 418C6 416.299 6.41759 415.5 6.88842 414.588C7.41759 413.564 8 412.428 8 410.259H7ZM5 418V417H4V418V419H5V418ZM4 418L5 418C5 415.831 4.41759 414.695 3.88842 413.67C3.41759 412.759 3 411.96 3 410.259H2H1C1 412.428 1.58241 413.564 2.11158 414.588C2.58241 415.5 3 416.299 3 418L4 418ZM2 410.259H3V359.741H2H1V410.259H2ZM2 359.741H3C3 358.04 3.41759 357.241 3.88842 356.33C4.41759 355.305 5 354.169 5 352H4H3C3 353.701 2.58241 354.5 2.11158 355.412C1.58241 356.436 1 357.572 1 359.741H2ZM4 352V353H5V352V351H4V352Z" fill="#9C8F88" mask="url(#path-7-inside-1_369_1884)"/>
<rect x="3" y="75.0557" width="3" height="66.8889" fill="#9C8F88"/>
<rect x="4" y="44" width="1" height="129" fill="#9C8F88"/>
<path d="M6 141.944C6 157.472 5 157.472 5 173V141.944H6Z" fill="#9C8F88"/>
<path d="M3 141.944C3 157.472 4 157.472 4 173V141.944H3Z" fill="#9C8F88"/>
<path d="M6 75.0557C6 59.5279 5 59.5279 5 44.0001V75.0557H6Z" fill="#9C8F88"/>
<path d="M3 75.0557C3 59.5279 4 59.5279 4 44.0001V75.0557H3Z" fill="#9C8F88"/>
</svg>
