<svg width="9" height="706" viewBox="0 0 9 706" fill="none" xmlns="http://www.w3.org/2000/svg">
<mask id="path-1-inside-1_369_1885" fill="white">
<path d="M5 462C5 468.978 7 468.979 7 475.957V567.043C7 574.021 5 574.022 5 581H4C4 574.022 2 574.021 2 567.043V475.957C2 468.979 4 468.978 4 462H5Z"/>
</mask>
<path d="M5 462C5 468.978 7 468.979 7 475.957V567.043C7 574.021 5 574.022 5 581H4C4 574.022 2 574.021 2 567.043V475.957C2 468.979 4 468.978 4 462H5Z" fill="#DAD2BF"/>
<path d="M5 462H6V461H5V462ZM5 581V582H6V581H5ZM4 581H3V582H4V581ZM4 462V461H3V462H4ZM5 462H4C4 465.619 4.52567 467.464 5.0387 469.254C5.52567 470.953 6 472.598 6 475.957H7H8C8 472.338 7.47433 470.493 6.9613 468.703C6.47433 467.004 6 465.359 6 462H5ZM7 475.957H6V567.043H7H8V475.957H7ZM7 567.043H6C6 570.402 5.52567 572.047 5.0387 573.746C4.52567 575.536 4 577.381 4 581H5H6C6 577.641 6.47433 575.996 6.9613 574.297C7.47433 572.507 8 570.662 8 567.043H7ZM5 581V580H4V581V582H5V581ZM4 581H5C5 577.381 4.47433 575.536 3.9613 573.746C3.47433 572.047 3 570.402 3 567.043H2H1C1 570.662 1.52567 572.507 2.0387 574.297C2.52567 575.996 3 577.641 3 581H4ZM2 567.043H3V475.957H2H1V567.043H2ZM2 475.957H3C3 472.598 3.47433 470.953 3.9613 469.254C4.47433 467.464 5 465.619 5 462H4H3C3 465.359 2.52567 467.004 2.0387 468.703C1.52567 470.493 1 472.338 1 475.957H2ZM4 462V463H5V462V461H4V462Z" fill="#9C8F88" mask="url(#path-1-inside-1_369_1885)"/>
<rect x="6" y="331.148" width="3.00003" height="204.296" transform="rotate(-180 6 331.148)" fill="#9C8F88"/>
<rect x="5" y="426" width="1.00001" height="394" transform="rotate(-180 5 426)" fill="#9C8F88"/>
<path d="M2.99999 126.852C2.99999 79.4261 4 79.4261 4.00001 32.0002L4 126.852L2.99999 126.852Z" fill="#9C8F88"/>
<path d="M6.00001 126.852C6.00002 79.4261 5 79.4261 5.00001 32.0002L5 126.852L6.00001 126.852Z" fill="#9C8F88"/>
<path d="M2.99999 331.148C2.99998 378.574 4 378.574 3.99999 426L4 331.148L2.99999 331.148Z" fill="#9C8F88"/>
<path d="M6.00001 331.148C6.00001 378.574 5 378.574 4.99999 426L5 331.148L6.00001 331.148Z" fill="#9C8F88"/>
</svg>
