<svg width="1154" height="9" viewBox="0 0 1154 9" fill="none" xmlns="http://www.w3.org/2000/svg">
<rect x="312" y="4" width="1" height="226" transform="rotate(90 312 4)" fill="#9C8F88"/>
<rect x="285.494" y="2" width="5.00001" height="172.988" transform="rotate(90 285.494 2)" fill="#9C8F88"/>
<path d="M285.494 7C298.747 7 298.747 5 312 5L285.494 5L285.494 7Z" fill="#9C8F88"/>
<path d="M285.494 2C298.747 2 298.747 4 312 4L285.494 4L285.494 2Z" fill="#9C8F88"/>
<path d="M112.506 7C99.2531 7 99.2531 5 86 5L112.506 5L112.506 7Z" fill="#9C8F88"/>
<path d="M112.506 2C99.2531 2 99.2531 4 86 4L112.506 4L112.506 2Z" fill="#9C8F88"/>
<mask id="path-7-inside-1_369_1883" fill="white">
<path d="M437 5C431.312 5 431.311 7 425.623 7L351.377 7C345.689 7 345.688 5 340 5L340 4C345.688 4 345.689 2 351.377 2L425.623 2C431.311 2 431.312 4 437 4L437 5Z"/>
</mask>
<path d="M437 5C431.312 5 431.311 7 425.623 7L351.377 7C345.689 7 345.688 5 340 5L340 4C345.688 4 345.689 2 351.377 2L425.623 2C431.311 2 431.312 4 437 4L437 5Z" fill="#DAD2BF"/>
<path d="M437 5L437 6L438 6L438 5L437 5ZM340 5L339 5L339 6L340 6L340 5ZM340 4L340 3L339 3L339 4L340 4ZM437 4L438 4L438 3L437 3L437 4ZM437 5L437 4C433.996 4 432.453 4.53856 430.98 5.05661C429.609 5.53856 428.308 6 425.623 6L425.623 7L425.623 8C428.627 8 430.17 7.46144 431.643 6.94339C433.014 6.46144 434.315 6 437 6L437 5ZM425.623 7L425.623 6L351.377 6L351.377 7L351.377 8L425.623 8L425.623 7ZM351.377 7L351.377 6C348.692 6 347.391 5.53855 346.02 5.0566C344.547 4.53855 343.004 4 340 4L340 5L340 6C342.685 6 343.986 6.46144 345.357 6.94339C346.83 7.46144 348.373 8 351.377 8L351.377 7ZM340 5L341 5L341 4L340 4L339 4L339 5L340 5ZM340 4L340 5C343.004 5 344.547 4.46144 346.02 3.94339C347.391 3.46144 348.692 3 351.377 3L351.377 2L351.377 0.999996C348.373 0.999996 346.83 1.53855 345.357 2.0566C343.986 2.53855 342.685 3 340 3L340 4ZM351.377 2L351.377 3L425.623 3L425.623 2L425.623 1L351.377 0.999996L351.377 2ZM425.623 2L425.623 3C428.308 3 429.609 3.46144 430.98 3.94339C432.453 4.46144 433.996 5 437 5L437 4L437 3C434.315 3 433.014 2.53856 431.643 2.05661C430.17 1.53856 428.627 1 425.623 1L425.623 2ZM437 4L436 4L436 5L437 5L438 5L438 4L437 4Z" fill="#9C8F88" mask="url(#path-7-inside-1_369_1883)"/>
<rect x="977.167" y="3" width="3.00002" height="191.333" transform="rotate(90 977.167 3)" fill="#9C8F88"/>
<rect x="1066" y="4" width="1.00001" height="369" transform="rotate(90 1066 4)" fill="#9C8F88"/>
<path d="M785.833 6.00001C741.417 6 741.417 5 697 5L785.833 5L785.833 6.00001Z" fill="#9C8F88"/>
<path d="M785.833 2.99999C741.417 2.99999 741.417 4 697 4L785.833 4L785.833 2.99999Z" fill="#9C8F88"/>
<path d="M977.167 6.00001C1021.58 6.00001 1021.58 5 1066 5L977.167 5L977.167 6.00001Z" fill="#9C8F88"/>
<path d="M977.167 2.99999C1021.58 3 1021.58 4 1066 4L977.167 4L977.167 2.99999Z" fill="#9C8F88"/>
</svg>
