<svg width="1156" height="9" viewBox="0 0 1156 9" fill="none" xmlns="http://www.w3.org/2000/svg">
<rect x="946" y="4" width="1" height="284" transform="rotate(90 946 4)" fill="#9C8F88"/>
<rect x="912.691" y="2" width="5.00001" height="217.383" transform="rotate(90 912.691 2)" fill="#9C8F88"/>
<path d="M912.691 7C929.346 7 929.346 5 946 5L912.691 5L912.691 7Z" fill="#9C8F88"/>
<path d="M912.691 2C929.346 2 929.346 4 946 4L912.691 4L912.691 2Z" fill="#9C8F88"/>
<path d="M695.309 7C678.654 7 678.654 5 662 5L695.309 5L695.309 7Z" fill="#9C8F88"/>
<path d="M695.309 2C678.654 2 678.654 4 662 4L695.309 4L695.309 2Z" fill="#9C8F88"/>
<mask id="path-7-inside-1_367_1881" fill="white">
<path d="M394 5C376.407 5 376.407 7 358.814 7L129.186 6.99999C111.593 6.99999 111.593 4.99999 94 4.99999L94 3.99999C111.593 3.99999 111.593 1.99999 129.186 1.99999L358.814 2C376.407 2 376.407 4 394 4L394 5Z"/>
</mask>
<path d="M394 5C376.407 5 376.407 7 358.814 7L129.186 6.99999C111.593 6.99999 111.593 4.99999 94 4.99999L94 3.99999C111.593 3.99999 111.593 1.99999 129.186 1.99999L358.814 2C376.407 2 376.407 4 394 4L394 5Z" fill="#DAD2BF"/>
<path d="M394 5L394 6L395 6L395 5L394 5ZM94 4.99999L93 4.99999L93 5.99999L94 5.99999L94 4.99999ZM94 3.99999L94 2.99999L93 2.99999L93 3.99999L94 3.99999ZM394 4L395 4L395 3L394 3L394 4ZM394 5L394 4C385.152 4 380.713 4.50405 376.294 5.0064C371.917 5.50405 367.559 6 358.814 6L358.814 7L358.814 8C367.662 8 372.101 7.49595 376.52 6.9936C380.898 6.49595 385.255 6 394 6L394 5ZM358.814 7L358.814 6L129.186 5.99999L129.186 6.99999L129.186 7.99999L358.814 8L358.814 7ZM129.186 6.99999L129.186 5.99999C120.441 5.99999 116.083 5.50404 111.706 5.00639C107.287 4.50404 102.848 3.99999 94 3.99999L94 4.99999L94 5.99999C102.745 5.99999 107.102 6.49594 111.48 6.99359C115.899 7.49594 120.338 7.99999 129.186 7.99999L129.186 6.99999ZM94 4.99999L95 4.99999L95 3.99999L94 3.99999L93 3.99999L93 4.99999L94 4.99999ZM94 3.99999L94 4.99999C102.848 4.99999 107.287 4.49594 111.706 3.99359C116.083 3.49594 120.441 2.99999 129.186 2.99999L129.186 1.99999L129.186 0.999988C120.338 0.999988 115.899 1.50404 111.48 2.00639C107.102 2.50404 102.745 2.99999 94 2.99999L94 3.99999ZM129.186 1.99999L129.186 2.99999L358.814 3L358.814 2L358.814 0.999998L129.186 0.999988L129.186 1.99999ZM358.814 2L358.814 3C367.559 3 371.917 3.49595 376.294 3.9936C380.713 4.49595 385.152 5 394 5L394 4L394 3C385.255 3 380.898 2.50405 376.52 2.0064C372.101 1.50405 367.662 0.999999 358.814 0.999998L358.814 2ZM394 4L393 4L393 5L394 5L395 5L395 4L394 4Z" fill="#9C8F88" mask="url(#path-7-inside-1_367_1881)"/>
<rect x="511.944" y="3" width="3" height="66.8889" transform="rotate(90 511.944 3)" fill="#9C8F88"/>
<rect x="543" y="4" width="1" height="129" transform="rotate(90 543 4)" fill="#9C8F88"/>
<path d="M445.056 6C429.528 6 429.528 5 414 5L445.056 5L445.056 6Z" fill="#9C8F88"/>
<path d="M445.056 3C429.528 3 429.528 4 414 4L445.056 4L445.056 3Z" fill="#9C8F88"/>
<path d="M511.944 6C527.472 6 527.472 5 543 5L511.944 5L511.944 6Z" fill="#9C8F88"/>
<path d="M511.944 3C527.472 3 527.472 4 543 4L511.944 4L511.944 3Z" fill="#9C8F88"/>
</svg>
