<svg width="1" height="1202" viewBox="0 0 1 1202" fill="none" xmlns="http://www.w3.org/2000/svg">
<path d="M1 1198.36L1 1201.24H0L0 1198.36H1ZM1 1194.04V1195.48H0L0 1194.04H1ZM1 1188.28L1 1192.6H0L0 1188.28H1ZM1 1182.52L1 1185.4H0L0 1182.52H1ZM1 1176.76L1 1181.08H0L0 1176.76H1ZM1 1172.44V1173.88H0L0 1172.44H1ZM1 1168.11V1169.55H0L0 1168.11H1ZM1 1163.79V1165.23H0L0 1163.79H1ZM1 1159.47L1 1162.35H0L0 1159.47H1ZM1 1149.39L1 1153.71H0L0 1149.39H1ZM1 1146.51V1147.95H0L0 1146.51H1ZM1 1140.75L1 1143.63H0L0 1140.75H1ZM1 1136.43L1 1137.87H0L0 1136.43H1ZM1 1129.23L1 1130.67H0L0 1129.23H1ZM1 1123.47V1126.35H0L0 1123.47H1ZM1 1120.58V1122.02H0L0 1120.58H1ZM1 1113.38L1 1117.7H0L0 1113.38H1ZM1 1107.62L1 1110.5H0L0 1107.62H1ZM1 1104.74L1 1106.18H0L0 1104.74H1ZM1 1097.54L1 1098.98H0L0 1097.54H1ZM1 1091.78L1 1094.66H0L0 1091.78H1ZM1 1086.01L1 1090.33H0L0 1086.01H1ZM1 1083.13L1 1084.58H0L0 1083.13H1ZM1 1077.38L1 1080.25H0L0 1077.38H1ZM1 1073.05V1074.49H0L0 1073.05H1ZM1 1065.85L1 1070.17H0L0 1065.85H1ZM1 1061.53L1 1064.41H0L0 1061.53H1ZM1 1057.21L1 1058.65H0L0 1057.21H1ZM1 1052.89L1 1055.77H0L0 1052.89H1ZM1 1048.57V1050.01H0L0 1048.57H1ZM1 1038.48L1 1042.8H0L0 1038.48H1ZM1 1034.16V1035.6H0L0 1034.16H1ZM1 1029.84L1 1032.72H0L0 1029.84H1ZM1 1024.08L1 1026.96H0L0 1024.08H1ZM1 1019.76V1021.2H0L0 1019.76H1ZM1 1014L1 1018.32H0L0 1014H1ZM1 1006.8L1 1011.12H0L0 1006.8H1ZM1 1003.92V1005.36H0L0 1003.92H1ZM1 998.156L1 1001.04H0L0 998.156H1ZM1 992.393L1 995.272H0L0 992.393H1ZM1 985.192L1 989.513H0L0 985.192H1ZM1 982.312V983.753H0L0 982.312H1ZM1 975.108L1 979.429H0L0 975.108H1ZM1 970.789L1 972.229H0L0 970.789H1ZM1 966.469L1 969.349H0L0 966.469H1ZM1 960.705V963.585H0L0 960.705H1ZM1 953.505L1 957.825H0L0 953.505H1ZM1 949.185L1 950.625H0L0 949.185H1ZM1 943.421L1 947.741H0L0 943.421H1ZM1 939.102V940.541H0L0 939.102H1ZM1 934.781V937.661H0L0 934.781H1ZM1 929.018L1 931.897H0L0 929.018H1ZM1 921.817L1 926.138H0L0 921.817H1ZM1 917.497V918.938H0L0 917.497H1ZM1 914.613V916.054H0L0 914.613H1ZM1 907.414V908.854H0L0 907.414H1ZM1 903.094L1 905.974H0L0 903.094H1ZM1 895.89L1 900.21H0L0 895.89H1ZM1 891.57V893.01H0L0 891.57H1ZM1 887.25L1 890.13H0L0 887.25H1ZM1 880.046L1 884.366H0L0 880.046H1ZM1 875.727L1 878.606H0L0 875.727H1ZM1 869.966L1 874.286H0L0 869.966H1ZM1 865.643L1 868.522H0L0 865.643H1ZM1 861.322L1 862.763H0L0 861.322H1ZM1 855.562L1 859.883H0L0 855.562H1ZM1 848.358L1 852.679H0L0 848.358H1ZM1 844.039L1 845.479H0L0 844.039H1ZM1 839.719L1 842.599H0L0 839.719H1ZM1 835.395L1 836.835H0L0 835.395H1ZM1 831.075L1 833.955H0L0 831.075H1ZM1 823.875V825.315H0L0 823.875H1ZM1 819.551V820.991H0L0 819.551H1ZM1 812.352V813.791H0L0 812.352H1ZM1 808.031V810.911H0L0 808.031H1ZM1 803.707L1 805.147H0L0 803.707H1ZM1 799.388L1 800.827H0L0 799.388H1ZM1 790.747L1 793.628H0L0 790.747H1ZM1 787.863V789.304H0L0 787.863H1ZM1 783.544L1 786.424H0L0 783.544H1ZM1 779.224V780.664H0L0 779.224H1ZM1 770.58L1 773.46H0L0 770.58H1ZM1 766.26V767.7H0L0 766.26H1ZM1 759.06L1 763.38H0L0 759.06H1ZM1 756.176L1 757.616H0L0 756.176H1ZM1 748.977L1 753.296H0L0 748.977H1ZM1 744.656L1 747.536H0L0 744.656H1ZM1 740.332V741.772H0L0 740.332H1ZM1 736.013V737.452H0L0 736.013H1ZM1 731.692V734.572H0L0 731.692H1ZM1 724.488V725.929H0L0 724.488H1ZM1 720.169L1 723.049H0L0 720.169H1ZM1 712.969L1 714.409H0L0 712.969H1ZM1 708.645L1 710.085H0L0 708.645H1ZM1 701.445L1 702.885H0L0 701.445H1ZM1 695.685V698.565H0L0 695.685H1ZM1 692.801V694.241H0L0 692.801H1ZM1 688.481V691.361H0L0 688.481H1ZM1 681.281V682.722H0L0 681.281H1ZM1 674.077L1 678.397H0L0 674.077H1ZM1 669.758L1 672.638H0L0 669.758H1ZM1 663.997L1 668.317H0L0 663.997H1ZM1 661.113V662.554H0L0 661.113H1ZM1 656.794L1 659.674H0L0 656.794H1ZM1 649.594V651.034H0L0 649.594H1ZM1 645.27V646.71H0L0 645.27H1ZM1 640.95L1 642.39H0L0 640.95H1ZM1 636.63L1 639.51H0L0 636.63H1ZM1 629.426L1 630.866H0L0 629.426H1ZM1 625.106L1 626.546H0L0 625.106H1ZM1 620.786L1 623.666H0L0 620.786H1ZM1 610.702L1 615.022H0L0 610.702H1ZM1 606.383L1 609.263H0L0 606.383H1ZM1 600.622L1 604.942H0L0 600.622H1ZM1 597.738V599.179H0L0 597.738H1ZM1 590.539V591.979H0L0 590.539H1ZM1 584.778L1 587.659H0L0 584.778H1ZM1 581.895L1 583.335H0L0 581.895H1ZM1 574.695L1 579.015H0L0 574.695H1ZM1 570.375L1 573.255H0L0 570.375H1ZM1 564.611L1 567.491H0L0 564.611H1ZM1 557.411L1 561.731H0L0 557.411H1ZM1 553.091L1 554.531H0L0 553.091H1ZM1 550.207L1 551.647H0L0 550.207H1ZM1 545.888L1 547.327H0L0 545.888H1ZM1 537.247L1 540.128H0L0 537.247H1ZM1 534.363V535.804H0L0 534.363H1ZM1 527.164L1 531.483H0L0 527.164H1ZM1 522.844L1 525.724H0L0 522.844H1ZM1 518.52V519.96H0L0 518.52H1ZM1 514.2V515.64H0L0 514.2H1ZM1 505.56L1 508.44H0L0 505.56H1ZM1 501.236L1 504.116H0L0 501.236H1ZM1 494.036L1 498.356H0L0 494.036H1ZM1 491.156L1 492.597H0L0 491.156H1ZM1 486.832V488.272H0L0 486.832H1ZM1 482.513V483.952H0L0 482.513H1ZM1 473.872L1 476.753H0L0 473.872H1ZM1 470.988V472.429H0L0 470.988H1ZM1 466.669L1 469.549H0L0 466.669H1ZM1 459.469L1 460.909H0L0 459.469H1ZM1 455.145L1 456.585H0L0 455.145H1ZM1 450.825V452.265H0L0 450.825H1ZM1 442.185V445.065H0L0 442.185H1ZM1 439.301V440.741H0L0 439.301H1ZM1 434.981V437.861H0L0 434.981H1ZM1 427.781V429.222H0L0 427.781H1ZM1 420.577L1 424.897H0L0 420.577H1ZM1 416.258V419.138H0L0 416.258H1ZM1 410.497L1 414.817H0L0 410.497H1ZM1 407.613L1 409.054H0L0 407.613H1ZM1 400.414L1 401.854H0L0 400.414H1ZM1 394.653V397.534H0L0 394.653H1ZM1 390.33L1 393.21H0L0 390.33H1ZM1 386.01L1 387.45H0L0 386.01H1ZM1 380.25L1 384.57H0L0 380.25H1ZM1 374.486L1 377.366H0L0 374.486H1ZM1 368.727L1 373.046H0L0 368.727H1ZM1 364.406L1 365.847H0L0 364.406H1ZM1 357.202L1 361.522H0L0 357.202H1ZM1 352.883V354.322H0L0 352.883H1ZM1 348.562L1 351.442H0L0 348.562H1ZM1 344.238V345.679H0L0 344.238H1ZM1 337.039V338.479H0L0 337.039H1ZM1 331.278L1 334.159H0L0 331.278H1ZM1 326.955L1 329.835H0L0 326.955H1ZM1 322.635V324.075H0L0 322.635H1ZM1 315.435L1 319.755H0L0 315.435H1ZM1 312.551V313.991H0L0 312.551H1ZM1 308.231L1 311.111H0L0 308.231H1ZM1 303.911V305.352H0L0 303.911H1ZM1 295.268L1 298.147H0L0 295.268H1ZM1 288.067L1 292.388H0L0 288.067H1ZM1 283.747V285.188H0L0 283.747H1ZM1 280.863L1 282.304H0L0 280.863H1ZM1 273.664L1 277.983H0L0 273.664H1ZM1 269.344L1 272.224H0L0 269.344H1ZM1 265.02V266.46H0L0 265.02H1ZM1 260.7V263.58H0L0 260.7H1ZM1 256.38L1 257.82H0L0 256.38H1ZM1 249.176L1 250.616H0L0 249.176H1ZM1 241.977L1 243.416H0L0 241.977H1ZM1 236.216L1 239.097H0L0 236.216H1ZM1 230.452L1 234.772H0L0 230.452H1ZM1 226.133L1 229.013H0L0 226.133H1ZM1 220.372L1 224.692H0L0 220.372H1ZM1 217.488V218.929H0L0 217.488H1ZM1 210.289L1 214.608H0L0 210.289H1ZM1 205.969V208.849H0L0 205.969H1ZM1 200.205L1 203.085H0L0 200.205H1ZM1 193.005L1 197.325H0L0 193.005H1ZM1 188.685V190.125H0L0 188.685H1ZM1 185.802V187.241H0L0 185.802H1ZM1 178.602L1 182.921H0L0 178.602H1ZM1 172.841L1 175.722H0L0 172.841H1ZM1 169.958V171.397H0L0 169.958H1ZM1 162.758L1 167.077H0L0 162.758H1ZM1 156.997L1 159.878H0L0 156.997H1ZM1 151.233L1 155.554H0L0 151.233H1ZM1 146.914L1 149.794H0L0 146.914H1ZM1 141.153L1 145.474H0L0 141.153H1ZM1 138.271V139.71H0L0 138.271H1ZM1 133.95V135.39H0L0 133.95H1ZM1 129.63L1 132.51H0L0 129.63H1ZM1 122.427L1 123.866H0L0 122.427H1ZM1 118.106L1 119.546H0L0 118.106H1ZM1 109.466L1 112.347H0L0 109.466H1ZM1 105.143L1 108.022H0L0 105.143H1ZM1 97.9424L1 102.263H0L0 97.9424H1ZM1 95.0625V96.5029H0L0 95.0625H1ZM1 90.7393V92.1787H0L0 90.7393H1ZM1 83.5391V84.9785H0L0 83.5391H1ZM1 77.7783L1 80.6592H0L0 77.7783H1ZM1 72.0146L1 76.335H0L0 72.0146H1ZM1 67.6953L1 69.1348H0L0 67.6953H1ZM1 63.375L1 66.2549H0L0 63.375H1ZM1 57.6113V60.4912H0L0 57.6113H1ZM1 53.291L1 54.7314H0L0 53.291H1ZM1 47.5312L1 51.8516H0L0 47.5312H1ZM1 43.208V44.6475H0L0 43.208H1ZM1 38.8877L1 40.3271H0L0 38.8877H1ZM1 30.2471L1 33.1279H0L0 30.2471H1ZM1 25.9238L1 28.8037H0L0 25.9238H1ZM1 21.6035V23.0439H0L0 21.6035H1ZM1 15.8438L1 20.1641H0L0 15.8438H1ZM1 8.63965L1 12.96H0L0 8.63965H1ZM1 5.75977L1 7.2002H0L0 5.75977H1ZM1 0L1 2.87988H0L0 0H1Z" fill="#CAC1AF"/>
</svg>
