<svg width="1202" height="1" viewBox="0 0 1202 1" fill="none" xmlns="http://www.w3.org/2000/svg">
<path d="M4.32031 1H0V0H4.32031V1ZM8.63965 1H5.75977V0H8.63965V1ZM14.4004 1H10.0801V0H14.4004V1ZM17.2842 1H15.8438V0H17.2842V1ZM21.6035 1H20.1641V0H21.6035V1ZM25.9238 1H23.0439V0H25.9238V1ZM33.1279 1H31.6875V0H33.1279V1ZM40.3271 1H38.8877V0H40.3271V1ZM44.6475 1H41.7676V0H44.6475V1ZM50.4111 1H47.5312V0H50.4111V1ZM54.7314 1H53.291V0H54.7314V1ZM60.4912 1H56.1709V0H60.4912V1ZM64.8154 1H63.375V0H64.8154V1ZM72.0146 1H67.6953V0H72.0146V1ZM76.335 1H73.4551V0H76.335V1ZM80.6592 1H79.2188V0H80.6592V1ZM84.9785 1H83.5391V0H84.9785V1ZM93.6191 1H90.7383V0H93.6191V1ZM97.9424 1H95.0625V0H97.9424V1ZM102.263 1H100.822V0H102.263V1ZM108.022 1H103.702V0H108.022V1ZM113.786 1H110.906V0H113.786V1ZM120.986 1H116.666V0H120.986V1ZM123.866 1H122.426V0H123.866V1ZM129.63 1H126.75V0H129.63V1ZM136.83 1H132.51V0H136.83V1ZM139.71 1H138.27V0H139.71V1ZM144.034 1H142.594V0H144.034V1ZM151.233 1H149.794V0H151.233V1ZM155.554 1H152.674V0H155.554V1ZM161.317 1H158.438V0H161.317V1ZM168.518 1H164.197V0H168.518V1ZM172.838 1H171.397V0H172.838V1ZM177.161 1H174.281V0H177.161V1ZM182.921 1H178.602V0H182.921V1ZM187.241 1H185.801V0H187.241V1ZM193.005 1H190.125V0H193.005V1ZM197.325 1H195.885V0H197.325V1ZM204.525 1H200.205V0H204.525V1ZM207.409 1H205.969V0H207.409V1ZM211.729 1H210.289V0H211.729V1ZM220.369 1H217.488V0H220.369V1ZM223.253 1H221.812V0H223.253V1ZM230.452 1H226.133V0H230.452V1ZM236.213 1H233.332V0H236.213V1ZM239.097 1H237.656V0H239.097V1ZM246.296 1H244.856V0H246.296V1ZM250.616 1H247.736V0H250.616V1ZM257.82 1H253.5V0H257.82V1ZM260.7 1H259.26V0H260.7V1ZM266.46 1H263.58V0H266.46V1ZM272.224 1H269.344V0H272.224V1ZM279.424 1H275.104V0H279.424V1ZM283.744 1H282.304V0H283.744V1ZM288.067 1H285.188V0H288.067V1ZM292.388 1H290.947V0H292.388V1ZM298.147 1H293.827V0H298.147V1ZM303.911 1H301.031V0H303.911V1ZM308.231 1H306.791V0H308.231V1ZM315.432 1H311.111V0H315.432V1ZM318.315 1H316.875V0H318.315V1ZM322.635 1H319.755V0H322.635V1ZM326.955 1H325.515V0H326.955V1ZM335.599 1H332.719V0H335.599V1ZM339.919 1H338.479V0H339.919V1ZM347.119 1H342.799V0H347.119V1ZM350.003 1H348.562V0H350.003V1ZM354.322 1H351.442V0H354.322V1ZM361.522 1H360.082V0H361.522V1ZM367.286 1H364.406V0H367.286V1ZM374.486 1H370.166V0H374.486V1ZM377.366 1H375.926V0H377.366V1ZM383.13 1H380.25V0H383.13V1ZM387.45 1H384.57V0H387.45V1ZM393.21 1H390.33V0H393.21V1ZM397.534 1H396.094V0H397.534V1ZM404.733 1H403.294V0H404.733V1ZM410.494 1H407.613V0H410.494V1ZM414.817 1H411.938V0H414.817V1ZM422.018 1H417.697V0H422.018V1ZM426.338 1H424.897V0H426.338V1ZM429.222 1H427.781V0H429.222V1ZM436.421 1H434.981V0H436.421V1ZM440.741 1H437.861V0H440.741V1ZM445.065 1H443.625V0H445.065V1ZM452.265 1H447.945V0H452.265V1ZM456.585 1H453.705V0H456.585V1ZM462.349 1H459.469V0H462.349V1ZM469.549 1H465.229V0H469.549V1ZM473.869 1H472.429V0H473.869V1ZM476.753 1H475.312V0H476.753V1ZM481.072 1H478.192V0H481.072V1ZM485.393 1H483.952V0H485.393V1ZM494.036 1H491.156V0H494.036V1ZM501.236 1H496.916V0H501.236V1ZM504.116 1H502.676V0H504.116V1ZM508.44 1H507V0H508.44V1ZM515.64 1H511.32V0H515.64V1ZM519.96 1H517.08V0H519.96V1ZM524.284 1H522.844V0H524.284V1ZM528.604 1H527.164V0H528.604V1ZM532.924 1H530.044V0H532.924V1ZM540.128 1H538.688V0H540.128V1ZM544.447 1H543.008V0H544.447V1ZM548.768 1H545.888V0H548.768V1ZM555.972 1H554.531V0H555.972V1ZM560.291 1H557.411V0H560.291V1ZM567.491 1H566.051V0H567.491V1ZM573.255 1H570.375V0H573.255V1ZM579.015 1H574.695V0H579.015V1ZM583.335 1H581.895V0H583.335V1ZM587.659 1H586.219V0H587.659V1ZM591.979 1H590.539V0H591.979V1ZM600.619 1H597.738V0H600.619V1ZM606.383 1H602.062V0H606.383V1ZM610.702 1H609.263V0H610.702V1ZM615.022 1H612.143V0H615.022V1ZM620.786 1H617.906V0H620.786V1ZM627.986 1H623.666V0H627.986V1ZM632.307 1H630.866V0H632.307V1ZM636.63 1H633.75V0H636.63V1ZM643.83 1H639.51V0H643.83V1ZM646.71 1H645.27V0H646.71V1ZM652.474 1H649.594V0H652.474V1ZM659.674 1H655.354V0H659.674V1ZM662.554 1H661.113V0H662.554V1ZM669.758 1H665.438V0H669.758V1ZM674.077 1H671.197V0H674.077V1ZM679.838 1H675.518V0H679.838V1ZM682.722 1H681.281V0H682.722V1ZM687.041 1H684.161V0H687.041V1ZM691.361 1H689.921V0H691.361V1ZM701.445 1H697.125V0H701.445V1ZM705.765 1H704.325V0H705.765V1ZM710.085 1H707.205V0H710.085V1ZM714.409 1H712.969V0H714.409V1ZM718.729 1H717.289V0H718.729V1ZM727.369 1H724.488V0H727.369V1ZM733.133 1H728.812V0H733.133V1ZM737.452 1H736.013V0H737.452V1ZM741.772 1H738.893V0H741.772V1ZM747.536 1H744.656V0H747.536V1ZM754.736 1H750.416V0H754.736V1ZM757.616 1H756.176V0H757.616V1ZM761.94 1H760.5V0H761.94V1ZM769.14 1H767.7V0H769.14V1ZM774.9 1H772.02V0H774.9V1ZM777.784 1H776.344V0H777.784V1ZM782.104 1H780.664V0H782.104V1ZM786.424 1H783.544V0H786.424V1ZM793.628 1H792.188V0H793.628V1ZM800.827 1H796.508V0H800.827V1ZM806.588 1H803.707V0H806.588V1ZM810.911 1H808.031V0H810.911V1ZM815.231 1H813.791V0H815.231V1ZM820.991 1H816.671V0H820.991V1ZM825.315 1H823.875V0H825.315V1ZM832.515 1H831.075V0H832.515V1ZM838.275 1H835.395V0H838.275V1ZM842.599 1H839.719V0H842.599V1ZM848.358 1H844.039V0H848.358V1ZM852.679 1H851.238V0H852.679V1ZM857.003 1H855.562V0H857.003V1ZM864.202 1H862.763V0H864.202V1ZM868.522 1H865.643V0H868.522V1ZM875.727 1H871.406V0H875.727V1ZM878.606 1H877.166V0H878.606V1ZM884.366 1H881.486V0H884.366V1ZM888.69 1H887.25V0H888.69V1ZM893.01 1H891.57V0H893.01V1ZM897.33 1H894.45V0H897.33V1ZM905.974 1H903.094V0H905.974V1ZM910.294 1H908.854V0H910.294V1ZM917.494 1H913.174V0H917.494V1ZM921.817 1H918.938V0H921.817V1ZM929.018 1H924.697V0H929.018V1ZM933.338 1H931.897V0H933.338V1ZM939.102 1H934.781V0H939.102V1ZM941.981 1H940.541V0H941.981V1ZM947.741 1H944.861V0H947.741V1ZM952.065 1H950.625V0H952.065V1ZM956.385 1H953.505V0H956.385V1ZM963.585 1H962.145V0H963.585V1ZM967.909 1H966.469V0H967.909V1ZM975.108 1H973.669V0H975.108V1ZM980.869 1H977.988V0H980.869V1ZM983.753 1H982.312V0H983.753V1ZM990.952 1H989.513V0H990.952V1ZM995.272 1H992.393V0H995.272V1ZM999.597 1H998.156V0H999.597V1ZM1003.92 1H1002.48V0H1003.92V1ZM1012.56 1H1009.68V0H1012.56V1ZM1016.88 1H1014V0H1016.88V1ZM1021.2 1H1019.76V0H1021.2V1ZM1026.96 1H1022.64V0H1026.96V1ZM1031.28 1H1029.84V0H1031.28V1ZM1035.6 1H1032.72V0H1035.6V1ZM1042.8 1H1041.36V0H1042.8V1ZM1048.57 1H1045.69V0H1048.57V1ZM1052.89 1H1051.45V0H1052.89V1ZM1058.65 1H1054.33V0H1058.65V1ZM1062.97 1H1061.53V0H1062.97V1ZM1067.29 1H1064.41V0H1067.29V1ZM1074.49 1H1073.05V0H1074.49V1ZM1080.25 1H1077.38V0H1080.25V1ZM1084.58 1H1083.13V0H1084.58V1ZM1091.78 1H1087.46V0H1091.78V1ZM1097.54 1H1093.22V0H1097.54V1ZM1101.86 1H1098.98V0H1101.86V1ZM1107.62 1H1103.3V0H1107.62V1ZM1111.94 1H1109.06V0H1111.94V1ZM1119.14 1H1114.82V0H1119.14V1ZM1122.02 1H1120.58V0H1122.02V1ZM1126.35 1H1124.91V0H1126.35V1ZM1130.67 1H1129.23V0H1130.67V1ZM1139.31 1H1136.43V0H1139.31V1ZM1142.19 1H1140.75V0H1142.19V1ZM1149.39 1H1147.95V0H1149.39V1ZM1153.71 1H1150.83V0H1153.71V1ZM1158.03 1H1156.59V0H1158.03V1ZM1165.23 1H1163.79V0H1165.23V1ZM1170.99 1H1168.11V0H1170.99V1ZM1173.88 1H1172.44V0H1173.88V1ZM1181.08 1H1179.64V0H1181.08V1ZM1186.84 1H1183.96V0H1186.84V1ZM1189.72 1H1188.28V0H1189.72V1ZM1196.92 1H1195.48V0H1196.92V1ZM1201.24 1H1198.36V0H1201.24V1Z" fill="#CAC1AF"/>
</svg>
