<svg width="256" height="256" viewBox="0 0 256 256" fill="none" xmlns="http://www.w3.org/2000/svg">
<path d="M67.8702 94.9532C65.8546 94.9532 64.199 95.6011 62.9033 96.8968C61.6076 98.1925 60.9597 99.8481 60.9597 101.864C60.9597 103.735 61.6076 105.391 62.9033 106.831C64.343 108.126 65.9986 108.774 67.8702 108.774H191.394C198.017 108.774 204.208 110.07 209.966 112.661C215.869 115.109 220.98 118.492 225.299 122.811C229.762 127.13 233.217 132.241 235.665 138.144C238.256 143.902 239.552 150.093 239.552 156.715C239.552 163.338 238.256 169.6 235.665 175.503C233.217 181.262 229.762 186.373 225.299 190.836C220.98 195.155 215.869 198.61 209.966 201.201C204.208 203.649 198.017 204.873 191.394 204.873H19.713V163.626H191.394C193.41 163.626 195.066 162.978 196.361 161.682C197.657 160.387 198.305 158.803 198.305 156.931C198.305 154.916 197.657 153.26 196.361 151.964C195.066 150.669 193.41 149.949 191.394 149.805H67.6542C61.0317 149.805 54.7691 148.581 48.8664 146.134C43.1077 143.542 38.0688 140.087 33.7498 135.768C29.4308 131.449 25.9756 126.41 23.3841 120.651C20.9367 114.749 19.713 108.486 19.713 101.864C19.713 95.2411 20.9367 89.0505 23.3841 83.2918C25.9756 77.3891 29.4308 72.2783 33.7498 67.9593C38.2128 63.4963 43.3237 60.041 49.0824 57.5936C54.985 55.0022 61.2476 53.7065 67.8702 53.7065H239.552V94.9532H67.8702Z" fill="#D95D39"/>
</svg>
