<svg width="1170" height="236" viewBox="0 0 1170 236" fill="none" xmlns="http://www.w3.org/2000/svg">
<path d="M200.351 140.906C198.625 140.906 197.207 141.461 196.097 142.57C194.987 143.68 194.432 145.098 194.432 146.825C194.432 148.428 194.987 149.846 196.097 151.079C197.33 152.189 198.748 152.744 200.351 152.744H306.155C311.827 152.744 317.13 153.854 322.062 156.073C327.118 158.17 331.496 161.067 335.195 164.767C339.018 168.466 341.977 172.844 344.074 177.9C346.293 182.832 347.403 188.135 347.403 193.807C347.403 199.48 346.293 204.844 344.074 209.9C341.977 214.832 339.018 219.21 335.195 223.033C331.496 226.732 327.118 229.692 322.062 231.911C317.13 234.007 311.827 235.056 306.155 235.056H159.103V199.726H306.155C307.881 199.726 309.299 199.171 310.409 198.062C311.519 196.952 312.074 195.595 312.074 193.992C312.074 192.266 311.519 190.848 310.409 189.738C309.299 188.628 307.881 188.011 306.155 187.888H200.167C194.494 187.888 189.13 186.84 184.074 184.744C179.142 182.524 174.826 179.564 171.126 175.865C167.427 172.166 164.467 167.85 162.248 162.917C160.151 157.861 159.103 152.497 159.103 146.825C159.103 141.152 160.151 135.85 162.248 130.917C164.467 125.861 167.427 121.484 171.126 117.784C174.949 113.962 179.326 111.002 184.259 108.906C189.315 106.686 194.679 105.576 200.351 105.576H347.403V140.906H200.351ZM354.971 140.906V105.576H543.271V140.906H466.878V235.056H431.549V140.906H354.971ZM572.262 105.576H666.412L713.395 235.056H675.846L667.337 211.564H583.731L596.679 176.235H654.389L641.626 140.906H596.863L562.644 235.056H525.095L572.262 105.576ZM760.863 140.906C759.137 140.906 757.719 141.461 756.609 142.57C755.499 143.68 754.944 145.098 754.944 146.825C754.944 148.428 755.499 149.846 756.609 151.079C757.842 152.189 759.26 152.744 760.863 152.744H866.666C872.339 152.744 877.641 153.854 882.574 156.073C887.63 158.17 892.007 161.067 895.707 164.767C899.529 168.466 902.489 172.844 904.585 177.9C906.805 182.832 907.915 188.135 907.915 193.807C907.915 199.48 906.805 204.844 904.585 209.9C902.489 214.832 899.529 219.21 895.707 223.033C892.007 226.732 887.63 229.692 882.574 231.911C877.641 234.007 872.339 235.056 866.666 235.056H719.615V199.726H866.666C868.393 199.726 869.811 199.171 870.921 198.062C872.03 196.952 872.585 195.595 872.585 193.992C872.585 192.266 872.03 190.848 870.921 189.738C869.811 188.628 868.393 188.011 866.666 187.888H760.678C755.006 187.888 749.642 186.84 744.586 184.744C739.653 182.524 735.337 179.564 731.638 175.865C727.938 172.166 724.979 167.85 722.759 162.917C720.663 157.861 719.615 152.497 719.615 146.825C719.615 141.152 720.663 135.85 722.759 130.917C724.979 125.861 727.938 121.484 731.638 117.784C735.46 113.962 739.838 111.002 744.771 108.906C749.826 106.686 755.191 105.576 760.863 105.576H907.915V140.906H760.863ZM958.951 105.576V235.056H923.621V105.576H958.951ZM1015.74 140.906C1014.01 140.906 1012.6 141.461 1011.49 142.57C1010.38 143.68 1009.82 145.098 1009.82 146.825C1009.82 148.428 1010.38 149.846 1011.49 151.079C1012.72 152.189 1014.14 152.744 1015.74 152.744H1121.54C1127.22 152.744 1132.52 153.854 1137.45 156.073C1142.51 158.17 1146.88 161.067 1150.58 164.767C1154.41 168.466 1157.37 172.844 1159.46 177.9C1161.68 182.832 1162.79 188.135 1162.79 193.807C1162.79 199.48 1161.68 204.844 1159.46 209.9C1157.37 214.832 1154.41 219.21 1150.58 223.033C1146.88 226.732 1142.51 229.692 1137.45 231.911C1132.52 234.007 1127.22 235.056 1121.54 235.056H974.491V199.726H1121.54C1123.27 199.726 1124.69 199.171 1125.8 198.062C1126.91 196.952 1127.46 195.595 1127.46 193.992C1127.46 192.266 1126.91 190.848 1125.8 189.738C1124.69 188.628 1123.27 188.011 1121.54 187.888H1015.55C1009.88 187.888 1004.52 186.84 999.462 184.744C994.53 182.524 990.214 179.564 986.514 175.865C982.815 172.166 979.855 167.85 977.636 162.917C975.539 157.861 974.491 152.497 974.491 146.825C974.491 141.152 975.539 135.85 977.636 130.917C979.855 125.861 982.815 121.484 986.514 117.784C990.337 113.962 994.715 111.002 999.647 108.906C1004.7 106.686 1010.07 105.576 1015.74 105.576H1162.79V140.906H1015.74Z" fill="#DAD2BF"/>
<path d="M126.719 0C127.041 7.95621 127.831 13.7811 129.587 18.9443C135.483 36.2775 148.951 49.9822 166.179 56.1797C175.797 59.6398 187.798 59.7446 211.801 59.9541L859.225 65.6045C861.137 65.6212 862.974 65.6347 864.739 65.6484C862.974 65.6621 861.137 65.6757 859.225 65.6924L211.801 71.3418C187.799 71.5513 175.797 71.6562 166.179 75.1162C148.951 81.3137 135.483 95.0193 129.587 112.353C127.831 117.515 127.041 123.34 126.719 131.295C126.388 122.335 125.579 115.975 123.649 110.354C117.643 92.8533 104.092 78.7764 86.833 72.1084C77.1993 68.3864 65.2066 67.9545 41.2217 67.0918L14.2168 66.1201C8.92971 65.9299 4.22498 65.7633 0 65.6475C4.22498 65.5316 8.92972 65.365 14.2168 65.1748L41.2217 64.2031C65.2067 63.3404 77.1993 62.9085 86.833 59.1865C104.092 52.5185 117.643 38.4417 123.649 20.9414C125.579 15.3204 126.388 8.96028 126.719 0Z" fill="#DAD2BF"/>
<path d="M912.281 64.4058H922.086L924.75 54.5622H932.123L924.866 81.584H917.492L920.117 71.7403H910.312L912.281 64.4058ZM897.844 81.584L905.101 54.5622H912.474L905.217 81.584H897.844ZM943.85 54.5622H951.185L953.771 81.584H945.935L945.472 76.6815H940.299L944.777 69.5786L944.429 65.9885L938.06 76.141L934.586 81.584H926.749L943.85 54.5622ZM956.748 68.0731C957.237 66.2202 958.048 64.4702 959.18 62.8231C960.338 61.1761 961.689 59.7478 963.233 58.5383C964.803 57.303 966.501 56.3379 968.329 55.6431C970.182 54.9225 972.035 54.5622 973.887 54.5622H987.398L985.391 61.9353H971.88C971.031 61.9353 970.194 62.1026 969.371 62.4371C968.547 62.7459 967.775 63.1834 967.055 63.7496C966.36 64.29 965.755 64.9334 965.24 65.6797C964.726 66.426 964.353 67.2238 964.121 68.0731C963.889 68.9223 963.825 69.7201 963.928 70.4664C964.057 71.2128 964.327 71.869 964.739 72.4352C965.15 72.9756 965.678 73.4131 966.321 73.7477C966.99 74.0565 967.75 74.2109 968.599 74.2109H982.11L980.141 81.584H966.63C964.777 81.584 963.117 81.2366 961.65 80.5417C960.209 79.8211 959.038 78.8561 958.138 77.6465C957.237 76.4112 956.658 74.9701 956.4 73.323C956.143 71.676 956.259 69.926 956.748 68.0731ZM995.698 71.7403L997.667 64.4058L1008.09 54.5622H1017.51L1003.19 68.0731L1010.25 81.584H1000.83L995.698 71.7403ZM990.487 54.5622H997.86L990.602 81.584H983.229L990.487 54.5622ZM1035.84 68.0731C1036.33 66.2202 1037.14 64.4702 1038.27 62.8231C1039.43 61.1761 1040.78 59.7478 1042.32 58.5383C1043.89 57.303 1045.59 56.3379 1047.42 55.6431C1049.27 54.9225 1051.12 54.5622 1052.98 54.5622H1066.49L1064.48 61.9353H1050.97C1050.12 61.9353 1049.28 62.1026 1048.46 62.4371C1047.64 62.7459 1046.87 63.1834 1046.14 63.7496C1045.45 64.29 1044.85 64.9334 1044.33 65.6797C1043.82 66.426 1043.44 67.2238 1043.21 68.0731C1042.98 68.9223 1042.92 69.7201 1043.02 70.4664C1043.15 71.2128 1043.42 71.869 1043.83 72.4352C1044.24 72.9756 1044.77 73.4131 1045.41 73.7477C1046.08 74.0565 1046.84 74.2109 1047.69 74.2109H1061.2L1059.23 81.584H1045.72C1043.87 81.584 1042.21 81.2366 1040.74 80.5417C1039.3 79.8211 1038.13 78.8561 1037.23 77.6465C1036.33 76.4112 1035.75 74.9701 1035.49 73.323C1035.23 71.676 1035.35 69.926 1035.84 68.0731ZM1091.31 74.2109L1089.34 81.584H1062.32L1069.58 54.5622H1076.95L1071.66 74.2109H1091.31ZM1093.58 72.9756L1098.52 54.5622H1105.9L1100.95 72.9756C1100.88 73.3359 1100.92 73.6319 1101.07 73.8635C1101.22 74.0951 1101.48 74.2109 1101.84 74.2109H1111.65C1112.03 74.2109 1112.37 74.0951 1112.65 73.8635C1112.93 73.6319 1113.13 73.3359 1113.23 72.9756L1118.17 54.5622H1125.54L1120.6 72.9756C1120.29 74.1594 1119.77 75.2789 1119.02 76.334C1118.3 77.3634 1117.44 78.277 1116.43 79.0748C1115.46 79.8469 1114.37 80.4645 1113.19 80.9277C1112.03 81.3652 1110.86 81.584 1109.68 81.584H1099.87C1098.69 81.584 1097.63 81.3652 1096.71 80.9277C1095.78 80.4645 1095.04 79.8469 1094.47 79.0748C1093.9 78.277 1093.53 77.3634 1093.35 76.334C1093.2 75.2789 1093.27 74.1594 1093.58 72.9756ZM1121.92 81.584L1129.18 54.5622H1147.59C1148.77 54.5622 1149.83 54.7938 1150.76 55.257C1151.68 55.6945 1152.43 56.3122 1152.99 57.11C1153.56 57.882 1153.92 58.7956 1154.08 59.8507C1154.26 60.8801 1154.19 61.9867 1153.88 63.1706C1153.39 64.972 1152.44 66.6062 1151.03 68.0731C1151.67 69.54 1151.75 71.1742 1151.26 72.9756C1150.95 74.1594 1150.42 75.2789 1149.67 76.334C1148.95 77.3634 1148.09 78.277 1147.09 79.0748C1146.11 79.8469 1145.03 80.4645 1143.85 80.9277C1142.69 81.3652 1141.52 81.584 1140.33 81.584H1121.92ZM1142.3 74.2109C1142.66 74.2109 1143 74.0951 1143.31 73.8635C1143.51 73.6833 1143.68 73.4774 1143.81 73.2458C1143.94 72.9885 1143.97 72.744 1143.92 72.5124C1143.85 72.0491 1143.54 71.7918 1143 71.7403H1134.39L1136.36 64.4058H1144.93C1145.29 64.4058 1145.61 64.29 1145.89 64.0584C1146.2 63.8011 1146.41 63.5051 1146.51 63.1706C1146.61 62.8103 1146.57 62.5143 1146.39 62.2827C1146.21 62.0511 1145.94 61.9353 1145.58 61.9353H1134.54L1131.26 74.2109H1142.3Z" fill="#DAD2BF"/>
</svg>
