<svg width="625" height="81" viewBox="0 0 625 81" fill="none" xmlns="http://www.w3.org/2000/svg">
<path d="M25.645 21.965C24.5716 21.965 23.69 22.31 23 23C22.31 23.69 21.965 24.5717 21.965 25.645C21.965 26.6417 22.31 27.5233 23 28.29C23.7666 28.98 24.6483 29.325 25.645 29.325H91.425C94.9516 29.325 98.2483 30.015 101.315 31.395C104.458 32.6983 107.18 34.5 109.48 36.8C111.857 39.1 113.697 41.8217 115 44.965C116.38 48.0317 117.07 51.3283 117.07 54.855C117.07 58.3817 116.38 61.7167 115 64.86C113.697 67.9267 111.857 70.6483 109.48 73.025C107.18 75.325 104.458 77.165 101.315 78.545C98.2483 79.8483 94.9516 80.5 91.425 80.5H-3.39672e-05V58.535H91.425C92.4983 58.535 93.38 58.19 94.07 57.5C94.76 56.81 95.105 55.9667 95.105 54.97C95.105 53.8967 94.76 53.015 94.07 52.325C93.38 51.635 92.4983 51.2517 91.425 51.175H25.53C22.0033 51.175 18.6683 50.5233 15.525 49.22C12.4583 47.84 9.77497 46 7.47497 43.7C5.17497 41.4 3.33497 38.7167 1.95497 35.65C0.651633 32.5067 -3.39672e-05 29.1717 -3.39672e-05 25.645C-3.39672e-05 22.1183 0.651633 18.8217 1.95497 15.755C3.33497 12.6117 5.17497 9.89 7.47497 7.59C9.85163 5.21333 12.5733 3.37333 15.64 2.07C18.7833 0.689995 22.1183 -5.48363e-06 25.645 -5.48363e-06H117.07V21.965H25.645ZM121.775 21.965V-5.48363e-06H238.845V21.965H191.35V80.5H169.385V21.965H121.775ZM256.87 -5.48363e-06H315.405L344.615 80.5H321.27L315.98 65.895H264L272.05 43.93H307.93L299.995 21.965H272.165L250.89 80.5H227.545L256.87 -5.48363e-06ZM374.126 21.965C373.053 21.965 372.171 22.31 371.481 23C370.791 23.69 370.446 24.5717 370.446 25.645C370.446 26.6417 370.791 27.5233 371.481 28.29C372.248 28.98 373.13 29.325 374.126 29.325H439.906C443.433 29.325 446.73 30.015 449.796 31.395C452.94 32.6983 455.661 34.5 457.961 36.8C460.338 39.1 462.178 41.8217 463.481 44.965C464.861 48.0317 465.551 51.3283 465.551 54.855C465.551 58.3817 464.861 61.7167 463.481 64.86C462.178 67.9267 460.338 70.6483 457.961 73.025C455.661 75.325 452.94 77.165 449.796 78.545C446.73 79.8483 443.433 80.5 439.906 80.5H348.481V58.535H439.906C440.98 58.535 441.861 58.19 442.551 57.5C443.241 56.81 443.586 55.9667 443.586 54.97C443.586 53.8967 443.241 53.015 442.551 52.325C441.861 51.635 440.98 51.2517 439.906 51.175H374.011C370.485 51.175 367.15 50.5233 364.006 49.22C360.94 47.84 358.256 46 355.956 43.7C353.656 41.4 351.816 38.7167 350.436 35.65C349.133 32.5067 348.481 29.1717 348.481 25.645C348.481 22.1183 349.133 18.8217 350.436 15.755C351.816 12.6117 353.656 9.89 355.956 7.59C358.333 5.21333 361.055 3.37333 364.121 2.07C367.265 0.689995 370.6 -5.48363e-06 374.126 -5.48363e-06H465.551V21.965H374.126ZM497.282 -5.48363e-06V80.5H475.317V-5.48363e-06H497.282ZM532.588 21.965C531.515 21.965 530.633 22.31 529.943 23C529.253 23.69 528.908 24.5717 528.908 25.645C528.908 26.6417 529.253 27.5233 529.943 28.29C530.71 28.98 531.592 29.325 532.588 29.325H598.368C601.895 29.325 605.192 30.015 608.258 31.395C611.402 32.6983 614.123 34.5 616.423 36.8C618.8 39.1 620.64 41.8217 621.943 44.965C623.323 48.0317 624.013 51.3283 624.013 54.855C624.013 58.3817 623.323 61.7167 621.943 64.86C620.64 67.9267 618.8 70.6483 616.423 73.025C614.123 75.325 611.402 77.165 608.258 78.545C605.192 79.8483 601.895 80.5 598.368 80.5H506.943V58.535H598.368C599.442 58.535 600.323 58.19 601.013 57.5C601.703 56.81 602.048 55.9667 602.048 54.97C602.048 53.8967 601.703 53.015 601.013 52.325C600.323 51.635 599.442 51.2517 598.368 51.175H532.473C528.947 51.175 525.612 50.5233 522.468 49.22C519.402 47.84 516.718 46 514.418 43.7C512.118 41.4 510.278 38.7167 508.898 35.65C507.595 32.5067 506.943 29.1717 506.943 25.645C506.943 22.1183 507.595 18.8217 508.898 15.755C510.278 12.6117 512.118 9.89 514.418 7.59C516.795 5.21333 519.517 3.37333 522.583 2.07C525.727 0.689995 529.062 -5.48363e-06 532.588 -5.48363e-06H624.013V21.965H532.588Z" fill="#443C38"/>
</svg>
