<svg width="698" height="125" viewBox="0 0 698 125" fill="none" xmlns="http://www.w3.org/2000/svg">
<path d="M105.785 74.345C104.874 74.345 104.125 74.638 103.539 75.2239C102.953 75.8099 102.66 76.5586 102.66 77.4701C102.66 78.3165 102.953 79.0652 103.539 79.7163C104.19 80.3022 104.939 80.5952 105.785 80.5952H161.646C164.641 80.5952 167.441 81.1811 170.045 82.3531C172.715 83.4599 175.026 84.9899 176.979 86.9431C178.997 88.8963 180.56 91.2075 181.667 93.8769C182.839 96.4812 183.425 99.2807 183.425 102.276C183.425 105.271 182.839 108.103 181.667 110.772C180.56 113.376 178.997 115.688 176.979 117.706C175.026 119.659 172.715 121.222 170.045 122.393C167.441 123.5 164.641 124.054 161.646 124.054H84.0071V105.401H161.646C162.558 105.401 163.307 105.108 163.893 104.522C164.479 103.936 164.772 103.22 164.772 102.373C164.772 101.462 164.479 100.713 163.893 100.127C163.307 99.5412 162.558 99.2156 161.646 99.1505H105.688C102.693 99.1505 99.8605 98.5971 97.1911 97.4903C94.5869 96.3184 92.3081 94.7558 90.3549 92.8026C88.4018 90.8494 86.8392 88.5707 85.6673 85.9665C84.5605 83.2971 84.0071 80.465 84.0071 77.4701C84.0071 74.4752 84.5605 71.6756 85.6673 69.0714C86.8392 66.402 88.4018 64.0907 90.3549 62.1375C92.3732 60.1192 94.6845 58.5567 97.2888 57.4499C99.9581 56.2779 102.79 55.692 105.785 55.692H183.425V74.345H105.785ZM187.42 74.345V55.692H286.838V74.345H246.504V124.054H227.851V74.345H187.42ZM302.144 55.692H351.853L376.659 124.054H356.834L352.341 111.651H308.199L315.035 92.998H345.505L338.767 74.345H315.133L297.066 124.054H277.241L302.144 55.692ZM401.72 74.345C400.809 74.345 400.06 74.638 399.474 75.2239C398.888 75.8099 398.595 76.5586 398.595 77.4701C398.595 78.3165 398.888 79.0652 399.474 79.7163C400.125 80.3022 400.874 80.5952 401.72 80.5952H457.582C460.577 80.5952 463.376 81.1811 465.98 82.3531C468.65 83.4599 470.961 84.9899 472.914 86.9431C474.933 88.8963 476.495 91.2075 477.602 93.8769C478.774 96.4812 479.36 99.2807 479.36 102.276C479.36 105.271 478.774 108.103 477.602 110.772C476.495 113.376 474.933 115.688 472.914 117.706C470.961 119.659 468.65 121.222 465.98 122.393C463.376 123.5 460.577 124.054 457.582 124.054H379.942V105.401H457.582C458.493 105.401 459.242 105.108 459.828 104.522C460.414 103.936 460.707 103.22 460.707 102.373C460.707 101.462 460.414 100.713 459.828 100.127C459.242 99.5412 458.493 99.2156 457.582 99.1505H401.623C398.628 99.1505 395.796 98.5971 393.126 97.4903C390.522 96.3184 388.243 94.7558 386.29 92.8026C384.337 90.8494 382.774 88.5707 381.603 85.9665C380.496 83.2971 379.942 80.465 379.942 77.4701C379.942 74.4752 380.496 71.6756 381.603 69.0714C382.774 66.402 384.337 64.0907 386.29 62.1375C388.309 60.1192 390.62 58.5567 393.224 57.4499C395.893 56.2779 398.726 55.692 401.72 55.692H479.36V74.345H401.72ZM506.305 55.692V124.054H487.652V55.692H506.305ZM536.288 74.345C535.377 74.345 534.628 74.638 534.042 75.2239C533.456 75.8099 533.163 76.5586 533.163 77.4701C533.163 78.3165 533.456 79.0652 534.042 79.7163C534.693 80.3022 535.442 80.5952 536.288 80.5952H592.15C595.145 80.5952 597.944 81.1811 600.549 82.3531C603.218 83.4599 605.529 84.9899 607.482 86.9431C609.501 88.8963 611.063 91.2075 612.17 93.8769C613.342 96.4812 613.928 99.2807 613.928 102.276C613.928 105.271 613.342 108.103 612.17 110.772C611.063 113.376 609.501 115.688 607.482 117.706C605.529 119.659 603.218 121.222 600.549 122.393C597.944 123.5 595.145 124.054 592.15 124.054H514.51V105.401H592.15C593.061 105.401 593.81 105.108 594.396 104.522C594.982 103.936 595.275 103.22 595.275 102.373C595.275 101.462 594.982 100.713 594.396 100.127C593.81 99.5412 593.061 99.2156 592.15 99.1505H536.191C533.196 99.1505 530.364 98.5971 527.694 97.4903C525.09 96.3184 522.811 94.7558 520.858 92.8026C518.905 90.8494 517.343 88.5707 516.171 85.9665C515.064 83.2971 514.51 80.465 514.51 77.4701C514.51 74.4752 515.064 71.6756 516.171 69.0714C517.343 66.402 518.905 64.0907 520.858 62.1375C522.877 60.1192 525.188 58.5567 527.792 57.4499C530.461 56.2779 533.294 55.692 536.288 55.692H613.928V74.345H536.288Z" fill="#DAD2BF"/>
<path d="M66.9092 0C67.0779 4.23103 67.4922 7.32266 68.4238 10.0615C71.5367 19.2129 78.6475 26.4486 87.7432 29.7207C92.8213 31.5475 99.1576 31.6033 111.83 31.7139L453.652 34.6963C454.657 34.7051 455.621 34.7125 456.549 34.7197C455.622 34.7269 454.657 34.7344 453.652 34.7432L111.83 37.7256C99.1576 37.8362 92.8213 37.892 87.7432 39.7188C78.6475 42.9908 71.5367 50.2266 68.4238 59.3779C67.4923 62.1166 67.078 65.208 66.9092 69.4385C66.7358 64.6767 66.3108 61.3033 65.2881 58.3232C62.117 49.0836 54.9628 41.6514 45.8506 38.1309C40.7642 36.1657 34.432 35.9379 21.7686 35.4824L7.51074 34.9688C4.71729 34.8683 2.23192 34.7799 0 34.7188C2.23191 34.6576 4.7173 34.5702 7.51074 34.4697L21.7686 33.957C34.432 33.5015 40.7642 33.2737 45.8506 31.3086C54.9628 27.7881 62.1169 20.3557 65.2881 11.1162C66.3109 8.13604 66.7358 4.7621 66.9092 0Z" fill="#DAD2BF"/>
<path d="M481.665 33.8093H486.842L488.248 28.6121H492.141L488.309 42.8789H484.417L485.803 37.6817H480.626L481.665 33.8093ZM474.043 42.8789L477.874 28.6121H481.767L477.935 42.8789H474.043ZM498.333 28.6121H502.205L503.571 42.8789H499.434L499.189 40.2905H496.458L498.822 36.5404L498.639 34.6449L495.276 40.0052L493.441 42.8789H489.304L498.333 28.6121ZM505.142 35.7455C505.401 34.7672 505.829 33.8433 506.426 32.9737C507.038 32.1041 507.751 31.35 508.567 30.7114C509.395 30.0592 510.292 29.5496 511.257 29.1828C512.235 28.8023 513.213 28.6121 514.192 28.6121H521.325L520.265 32.5049H513.132C512.683 32.5049 512.242 32.5932 511.807 32.7699C511.372 32.9329 510.965 33.1639 510.584 33.4628C510.217 33.7482 509.898 34.0878 509.626 34.4819C509.355 34.8759 509.158 35.2971 509.035 35.7455C508.913 36.1939 508.879 36.6151 508.933 37.0091C509.001 37.4032 509.144 37.7497 509.361 38.0486C509.579 38.3339 509.857 38.5649 510.197 38.7415C510.55 38.9046 510.951 38.9861 511.399 38.9861H518.533L517.493 42.8789H510.36C509.382 42.8789 508.505 42.6955 507.731 42.3286C506.97 41.9482 506.352 41.4386 505.876 40.8C505.401 40.1478 505.095 39.3869 504.959 38.5173C504.823 37.6477 504.884 36.7238 505.142 35.7455ZM525.707 37.6817L526.746 33.8093L532.249 28.6121H537.222L529.661 35.7455L533.391 42.8789H528.418L525.707 37.6817ZM522.956 28.6121H526.848L523.017 42.8789H519.124L522.956 28.6121ZM546.9 35.7455C547.158 34.7672 547.586 33.8433 548.184 32.9737C548.795 32.1041 549.509 31.35 550.324 30.7114C551.153 30.0592 552.05 29.5496 553.014 29.1828C553.993 28.8023 554.971 28.6121 555.949 28.6121H563.083L562.023 32.5049H554.889C554.441 32.5049 553.999 32.5932 553.565 32.7699C553.13 32.9329 552.722 33.1639 552.342 33.4628C551.975 33.7482 551.656 34.0878 551.384 34.4819C551.112 34.8759 550.915 35.2971 550.793 35.7455C550.67 36.1939 550.636 36.6151 550.691 37.0091C550.759 37.4032 550.901 37.7497 551.119 38.0486C551.336 38.3339 551.615 38.5649 551.954 38.7415C552.308 38.9046 552.709 38.9861 553.157 38.9861H560.29L559.251 42.8789H552.117C551.139 42.8789 550.263 42.6955 549.488 42.3286C548.727 41.9482 548.109 41.4386 547.634 40.8C547.158 40.1478 546.852 39.3869 546.716 38.5173C546.581 37.6477 546.642 36.7238 546.9 35.7455ZM576.188 38.9861L575.148 42.8789H560.881L564.713 28.6121H568.606L565.814 38.9861H576.188ZM577.387 38.3339L579.996 28.6121H583.888L581.28 38.3339C581.239 38.5241 581.259 38.6804 581.341 38.8027C581.422 38.925 581.558 38.9861 581.748 38.9861H586.925C587.129 38.9861 587.306 38.925 587.455 38.8027C587.604 38.6804 587.706 38.5241 587.761 38.3339L590.37 28.6121H594.262L591.654 38.3339C591.49 38.9589 591.212 39.55 590.818 40.1071C590.437 40.6506 589.982 41.1329 589.452 41.5541C588.936 41.9618 588.365 42.2879 587.74 42.5324C587.129 42.7634 586.511 42.8789 585.886 42.8789H580.709C580.084 42.8789 579.527 42.7634 579.038 42.5324C578.548 42.2879 578.154 41.9618 577.856 41.5541C577.557 41.1329 577.36 40.6506 577.264 40.1071C577.183 39.55 577.224 38.9589 577.387 38.3339ZM592.349 42.8789L596.18 28.6121H605.902C606.527 28.6121 607.084 28.7344 607.573 28.979C608.063 29.21 608.457 29.5361 608.756 29.9573C609.054 30.3649 609.245 30.8472 609.326 31.4043C609.421 31.9478 609.387 32.5321 609.224 33.1571C608.966 34.1082 608.463 34.971 607.716 35.7455C608.056 36.52 608.097 37.3828 607.838 38.3339C607.675 38.9589 607.397 39.55 607.003 40.1071C606.622 40.6506 606.167 41.1329 605.637 41.5541C605.121 41.9618 604.55 42.2879 603.925 42.5324C603.314 42.7634 602.696 42.8789 602.071 42.8789H592.349ZM603.11 38.9861C603.3 38.9861 603.477 38.925 603.64 38.8027C603.749 38.7076 603.837 38.5989 603.905 38.4766C603.973 38.3407 603.993 38.2116 603.966 38.0893C603.925 37.8448 603.762 37.7089 603.477 37.6817H598.932L599.971 33.8093H604.496C604.686 33.8093 604.856 33.7482 605.005 33.6259C605.168 33.49 605.277 33.3337 605.331 33.1571C605.386 32.9669 605.365 32.8106 605.27 32.6883C605.175 32.5661 605.033 32.5049 604.842 32.5049H599.013L597.281 38.9861H603.11Z" fill="#DAD2BF"/>
</svg>
