<svg width="737" height="147" viewBox="0 0 737 147" fill="none" xmlns="http://www.w3.org/2000/svg">
<path d="M134.555 88.465C133.482 88.465 132.6 88.81 131.91 89.5C131.22 90.19 130.875 91.0717 130.875 92.145C130.875 93.1417 131.22 94.0233 131.91 94.79C132.677 95.48 133.558 95.825 134.555 95.825H200.335C203.862 95.825 207.158 96.515 210.225 97.895C213.368 99.1983 216.09 101 218.39 103.3C220.767 105.6 222.607 108.322 223.91 111.465C225.29 114.532 225.98 117.828 225.98 121.355C225.98 124.882 225.29 128.217 223.91 131.36C222.607 134.427 220.767 137.148 218.39 139.525C216.09 141.825 213.368 143.665 210.225 145.045C207.158 146.348 203.862 147 200.335 147H108.91V125.035H200.335C201.408 125.035 202.29 124.69 202.98 124C203.67 123.31 204.015 122.467 204.015 121.47C204.015 120.397 203.67 119.515 202.98 118.825C202.29 118.135 201.408 117.752 200.335 117.675H134.44C130.913 117.675 127.578 117.023 124.435 115.72C121.368 114.34 118.685 112.5 116.385 110.2C114.085 107.9 112.245 105.217 110.865 102.15C109.562 99.0067 108.91 95.6717 108.91 92.145C108.91 88.6183 109.562 85.3217 110.865 82.255C112.245 79.1117 114.085 76.39 116.385 74.09C118.762 71.7133 121.483 69.8733 124.55 68.57C127.693 67.19 131.028 66.5 134.555 66.5H225.98V88.465H134.555ZM230.685 88.465V66.5H347.755V88.465H300.26V147H278.295V88.465H230.685ZM365.78 66.5H424.315L453.525 147H430.18L424.89 132.395H372.91L380.96 110.43H416.84L408.905 88.465H381.075L359.8 147H336.455L365.78 66.5ZM483.036 88.465C481.963 88.465 481.081 88.81 480.391 89.5C479.701 90.19 479.356 91.0717 479.356 92.145C479.356 93.1417 479.701 94.0233 480.391 94.79C481.158 95.48 482.04 95.825 483.036 95.825H548.816C552.343 95.825 555.64 96.515 558.706 97.895C561.85 99.1983 564.571 101 566.871 103.3C569.248 105.6 571.088 108.322 572.391 111.465C573.771 114.532 574.461 117.828 574.461 121.355C574.461 124.882 573.771 128.217 572.391 131.36C571.088 134.427 569.248 137.148 566.871 139.525C564.571 141.825 561.85 143.665 558.706 145.045C555.64 146.348 552.343 147 548.816 147H457.391V125.035H548.816C549.89 125.035 550.771 124.69 551.461 124C552.151 123.31 552.496 122.467 552.496 121.47C552.496 120.397 552.151 119.515 551.461 118.825C550.771 118.135 549.89 117.752 548.816 117.675H482.921C479.395 117.675 476.06 117.023 472.916 115.72C469.85 114.34 467.166 112.5 464.866 110.2C462.566 107.9 460.726 105.217 459.346 102.15C458.043 99.0067 457.391 95.6717 457.391 92.145C457.391 88.6183 458.043 85.3217 459.346 82.255C460.726 79.1117 462.566 76.39 464.866 74.09C467.243 71.7133 469.965 69.8733 473.031 68.57C476.175 67.19 479.51 66.5 483.036 66.5H574.461V88.465H483.036ZM606.192 66.5V147H584.227V66.5H606.192ZM641.498 88.465C640.425 88.465 639.543 88.81 638.853 89.5C638.163 90.19 637.818 91.0717 637.818 92.145C637.818 93.1417 638.163 94.0233 638.853 94.79C639.62 95.48 640.502 95.825 641.498 95.825H707.278C710.805 95.825 714.102 96.515 717.168 97.895C720.312 99.1983 723.033 101 725.333 103.3C727.71 105.6 729.55 108.322 730.853 111.465C732.233 114.532 732.923 117.828 732.923 121.355C732.923 124.882 732.233 128.217 730.853 131.36C729.55 134.427 727.71 137.148 725.333 139.525C723.033 141.825 720.312 143.665 717.168 145.045C714.102 146.348 710.805 147 707.278 147H615.853V125.035H707.278C708.352 125.035 709.233 124.69 709.923 124C710.613 123.31 710.958 122.467 710.958 121.47C710.958 120.397 710.613 119.515 709.923 118.825C709.233 118.135 708.352 117.752 707.278 117.675H641.383C637.857 117.675 634.522 117.023 631.378 115.72C628.312 114.34 625.628 112.5 623.328 110.2C621.028 107.9 619.188 105.217 617.808 102.15C616.505 99.0067 615.853 95.6717 615.853 92.145C615.853 88.6183 616.505 85.3217 617.808 82.255C619.188 79.1117 621.028 76.39 623.328 74.09C625.705 71.7133 628.427 69.8733 631.493 68.57C634.637 67.19 637.972 66.5 641.498 66.5H732.923V88.465H641.498Z" fill="#443C38"/>
<path d="M78.7764 0C78.9752 4.97946 79.4629 8.61879 80.5596 11.8428C84.2252 22.6189 92.598 31.1401 103.309 34.9932C109.288 37.1444 116.75 37.2086 131.673 37.3389L534.189 40.8516C535.355 40.8617 536.475 40.8695 537.552 40.8779C536.475 40.8863 535.355 40.8951 534.189 40.9053L131.673 44.418C116.75 44.5482 109.288 44.6134 103.309 46.7646C92.598 50.6178 84.2251 59.1387 80.5596 69.915C79.463 73.1389 78.9752 76.7776 78.7764 81.7568C78.5721 76.1523 78.0721 72.1809 76.8682 68.6729C73.1339 57.7926 64.7087 49.0402 53.9785 44.8945C47.9891 42.5805 40.5329 42.3127 25.6211 41.7764L8.83105 41.1719C5.54716 41.0538 2.62478 40.9499 0 40.8779C2.62477 40.8059 5.54717 40.7031 8.83105 40.585L25.6211 39.9814C40.5329 39.4451 47.9891 39.1763 53.9785 36.8623C64.7086 32.7167 73.1339 23.9651 76.8682 13.085C78.0722 9.57671 78.5721 5.60494 78.7764 0Z" fill="#D95D39"/>
<path d="M577.176 40.32H583.272L584.928 34.2H589.512L585 51H580.416L582.048 44.88H575.952L577.176 40.32ZM568.2 51L572.712 34.2H577.296L572.784 51H568.2ZM596.803 34.2H601.363L602.971 51H598.099L597.811 47.952H594.595L597.379 43.536L597.163 41.304L593.203 47.616L591.043 51H586.171L596.803 34.2ZM604.822 42.6C605.126 41.448 605.63 40.36 606.334 39.336C607.054 38.312 607.894 37.424 608.854 36.672C609.83 35.904 610.886 35.304 612.022 34.872C613.174 34.424 614.326 34.2 615.478 34.2H623.878L622.63 38.784H614.23C613.702 38.784 613.182 38.888 612.67 39.096C612.158 39.288 611.678 39.56 611.23 39.912C610.798 40.248 610.422 40.648 610.102 41.112C609.782 41.576 609.55 42.072 609.406 42.6C609.262 43.128 609.222 43.624 609.286 44.088C609.366 44.552 609.534 44.96 609.79 45.312C610.046 45.648 610.374 45.92 610.774 46.128C611.19 46.32 611.662 46.416 612.19 46.416H620.59L619.366 51H610.966C609.814 51 608.782 50.784 607.87 50.352C606.974 49.904 606.246 49.304 605.686 48.552C605.126 47.784 604.766 46.888 604.606 45.864C604.446 44.84 604.518 43.752 604.822 42.6ZM629.038 44.88L630.262 40.32L636.742 34.2H642.598L633.694 42.6L638.086 51H632.23L629.038 44.88ZM625.798 34.2H630.382L625.87 51H621.286L625.798 34.2ZM653.994 42.6C654.298 41.448 654.802 40.36 655.506 39.336C656.226 38.312 657.066 37.424 658.026 36.672C659.002 35.904 660.058 35.304 661.194 34.872C662.346 34.424 663.498 34.2 664.65 34.2H673.05L671.802 38.784H663.402C662.874 38.784 662.354 38.888 661.842 39.096C661.33 39.288 660.85 39.56 660.402 39.912C659.97 40.248 659.594 40.648 659.274 41.112C658.954 41.576 658.722 42.072 658.578 42.6C658.434 43.128 658.394 43.624 658.458 44.088C658.538 44.552 658.706 44.96 658.962 45.312C659.218 45.648 659.546 45.92 659.946 46.128C660.362 46.32 660.834 46.416 661.362 46.416H669.762L668.538 51H660.138C658.986 51 657.954 50.784 657.042 50.352C656.146 49.904 655.418 49.304 654.858 48.552C654.298 47.784 653.938 46.888 653.778 45.864C653.618 44.84 653.69 43.752 653.994 42.6ZM688.482 46.416L687.258 51H670.458L674.97 34.2H679.554L676.266 46.416H688.482ZM689.894 45.648L692.966 34.2H697.55L694.478 45.648C694.43 45.872 694.454 46.056 694.55 46.2C694.646 46.344 694.806 46.416 695.03 46.416H701.126C701.366 46.416 701.574 46.344 701.75 46.2C701.926 46.056 702.046 45.872 702.11 45.648L705.182 34.2H709.766L706.694 45.648C706.502 46.384 706.174 47.08 705.71 47.736C705.262 48.376 704.726 48.944 704.102 49.44C703.494 49.92 702.822 50.304 702.086 50.592C701.366 50.864 700.638 51 699.902 51H693.806C693.07 51 692.414 50.864 691.838 50.592C691.262 50.304 690.798 49.92 690.446 49.44C690.094 48.944 689.862 48.376 689.75 47.736C689.654 47.08 689.702 46.384 689.894 45.648ZM707.513 51L712.025 34.2H723.473C724.209 34.2 724.865 34.344 725.441 34.632C726.017 34.904 726.481 35.288 726.833 35.784C727.185 36.264 727.409 36.832 727.505 37.488C727.617 38.128 727.577 38.816 727.385 39.552C727.081 40.672 726.489 41.688 725.609 42.6C726.009 43.512 726.057 44.528 725.753 45.648C725.561 46.384 725.233 47.08 724.769 47.736C724.321 48.376 723.785 48.944 723.161 49.44C722.553 49.92 721.881 50.304 721.145 50.592C720.425 50.864 719.697 51 718.961 51H707.513ZM720.185 46.416C720.409 46.416 720.617 46.344 720.809 46.2C720.937 46.088 721.041 45.96 721.121 45.816C721.201 45.656 721.225 45.504 721.193 45.36C721.145 45.072 720.953 44.912 720.617 44.88H715.265L716.489 40.32H721.817C722.041 40.32 722.241 40.248 722.417 40.104C722.609 39.944 722.737 39.76 722.801 39.552C722.865 39.328 722.841 39.144 722.729 39C722.617 38.856 722.449 38.784 722.225 38.784H715.361L713.321 46.416H720.185Z" fill="#D95D39"/>
</svg>
