<svg width="625" height="81" viewBox="0 0 625 81" fill="none" xmlns="http://www.w3.org/2000/svg">
<mask id="path-1-inside-1_397_2087" fill="white">
<path d="M25.6451 21.965C24.5718 21.965 23.6901 22.31 23.0001 23C22.3101 23.69 21.9651 24.5717 21.9651 25.645C21.9651 26.6417 22.3101 27.5233 23.0001 28.29C23.7668 28.98 24.6484 29.325 25.6451 29.325H91.4251C94.9518 29.325 98.2484 30.015 101.315 31.395C104.458 32.6983 107.18 34.5 109.48 36.8C111.857 39.1 113.697 41.8217 115 44.965C116.38 48.0317 117.07 51.3283 117.07 54.855C117.07 58.3817 116.38 61.7167 115 64.86C113.697 67.9267 111.857 70.6483 109.48 73.025C107.18 75.325 104.458 77.165 101.315 78.545C98.2484 79.8483 94.9518 80.5 91.4251 80.5H8.81031e-05V58.535H91.4251C92.4984 58.535 93.3801 58.19 94.0701 57.5C94.7601 56.81 95.1051 55.9667 95.1051 54.97C95.1051 53.8967 94.7601 53.015 94.0701 52.325C93.3801 51.635 92.4984 51.2517 91.4251 51.175H25.5301C22.0034 51.175 18.6684 50.5233 15.5251 49.22C12.4584 47.84 9.77509 46 7.47509 43.7C5.17509 41.4 3.33509 38.7167 1.95509 35.65C0.651755 32.5067 8.81031e-05 29.1717 8.81031e-05 25.645C8.81031e-05 22.1183 0.651755 18.8217 1.95509 15.755C3.33509 12.6117 5.17509 9.89 7.47509 7.59C9.85176 5.21333 12.5734 3.37333 15.6401 2.07C18.7834 0.689995 22.1184 -5.48363e-06 25.6451 -5.48363e-06H117.07V21.965H25.6451ZM121.775 21.965V-5.48363e-06H238.845V21.965H191.35V80.5H169.385V21.965H121.775ZM256.87 -5.48363e-06H315.405L344.615 80.5H321.27L315.98 65.895H264L272.05 43.93H307.93L299.995 21.965H272.165L250.89 80.5H227.545L256.87 -5.48363e-06ZM374.127 21.965C373.053 21.965 372.172 22.31 371.482 23C370.792 23.69 370.447 24.5717 370.447 25.645C370.447 26.6417 370.792 27.5233 371.482 28.29C372.248 28.98 373.13 29.325 374.127 29.325H439.907C443.433 29.325 446.73 30.015 449.797 31.395C452.94 32.6983 455.662 34.5 457.962 36.8C460.338 39.1 462.178 41.8217 463.482 44.965C464.862 48.0317 465.552 51.3283 465.552 54.855C465.552 58.3817 464.862 61.7167 463.482 64.86C462.178 67.9267 460.338 70.6483 457.962 73.025C455.662 75.325 452.94 77.165 449.797 78.545C446.73 79.8483 443.433 80.5 439.907 80.5H348.482V58.535H439.907C440.98 58.535 441.862 58.19 442.552 57.5C443.242 56.81 443.587 55.9667 443.587 54.97C443.587 53.8967 443.242 53.015 442.552 52.325C441.862 51.635 440.98 51.2517 439.907 51.175H374.012C370.485 51.175 367.15 50.5233 364.007 49.22C360.94 47.84 358.257 46 355.957 43.7C353.657 41.4 351.817 38.7167 350.437 35.65C349.133 32.5067 348.482 29.1717 348.482 25.645C348.482 22.1183 349.133 18.8217 350.437 15.755C351.817 12.6117 353.657 9.89 355.957 7.59C358.333 5.21333 361.055 3.37333 364.122 2.07C367.265 0.689995 370.6 -5.48363e-06 374.127 -5.48363e-06H465.552V21.965H374.127ZM497.282 -5.48363e-06V80.5H475.317V-5.48363e-06H497.282ZM532.588 21.965C531.515 21.965 530.633 22.31 529.943 23C529.253 23.69 528.908 24.5717 528.908 25.645C528.908 26.6417 529.253 27.5233 529.943 28.29C530.71 28.98 531.592 29.325 532.588 29.325H598.368C601.895 29.325 605.192 30.015 608.258 31.395C611.402 32.6983 614.123 34.5 616.423 36.8C618.8 39.1 620.64 41.8217 621.943 44.965C623.323 48.0317 624.013 51.3283 624.013 54.855C624.013 58.3817 623.323 61.7167 621.943 64.86C620.64 67.9267 618.8 70.6483 616.423 73.025C614.123 75.325 611.402 77.165 608.258 78.545C605.192 79.8483 601.895 80.5 598.368 80.5H506.943V58.535H598.368C599.442 58.535 600.323 58.19 601.013 57.5C601.703 56.81 602.048 55.9667 602.048 54.97C602.048 53.8967 601.703 53.015 601.013 52.325C600.323 51.635 599.442 51.2517 598.368 51.175H532.473C528.947 51.175 525.612 50.5233 522.468 49.22C519.402 47.84 516.718 46 514.418 43.7C512.118 41.4 510.278 38.7167 508.898 35.65C507.595 32.5067 506.943 29.1717 506.943 25.645C506.943 22.1183 507.595 18.8217 508.898 15.755C510.278 12.6117 512.118 9.89 514.418 7.59C516.795 5.21333 519.517 3.37333 522.583 2.07C525.727 0.689995 529.062 -5.48363e-06 532.588 -5.48363e-06H624.013V21.965H532.588Z"/>
</mask>
<path d="M23.0001 23L24.4143 24.4142L24.4143 24.4142L23.0001 23ZM23.0001 28.29L21.5135 29.6279L21.5839 29.7062L21.6622 29.7766L23.0001 28.29ZM101.315 31.395L100.494 33.2188L100.522 33.2311L100.549 33.2425L101.315 31.395ZM109.48 36.8L108.066 38.2142L108.077 38.2258L108.089 38.2372L109.48 36.8ZM115 44.965L113.153 45.731L113.164 45.7586L113.176 45.7857L115 44.965ZM115 64.86L113.169 64.056L113.164 64.0668L113.159 64.0777L115 64.86ZM109.48 73.025L110.894 74.4392L110.894 74.4392L109.48 73.025ZM101.315 78.545L102.097 80.3857L102.108 80.381L102.119 80.3763L101.315 78.545ZM8.81031e-05 80.5H-1.99991V82.5H8.81031e-05V80.5ZM8.81031e-05 58.535V56.535H-1.99991V58.535H8.81031e-05ZM94.0701 57.5L95.4843 58.9142L95.4843 58.9142L94.0701 57.5ZM94.0701 52.325L92.6559 53.7392L92.6559 53.7392L94.0701 52.325ZM91.4251 51.175L91.5676 49.1801L91.4964 49.175H91.4251V51.175ZM15.5251 49.22L14.7044 51.0438L14.7315 51.0561L14.7591 51.0675L15.5251 49.22ZM1.95509 35.65L0.107604 36.416L0.119017 36.4436L0.131245 36.4707L1.95509 35.65ZM1.95509 15.755L0.1238 14.951L0.119049 14.9618L0.114426 14.9727L1.95509 15.755ZM7.47509 7.59L8.8893 9.00421L8.8893 9.00421L7.47509 7.59ZM15.6401 2.07L16.4224 3.91066L16.4332 3.90603L16.4441 3.90128L15.6401 2.07ZM117.07 -5.48363e-06H119.07V-2.00001H117.07V-5.48363e-06ZM117.07 21.965V23.965H119.07V21.965H117.07ZM25.6451 21.965V19.965C24.0996 19.965 22.6902 20.4814 21.5859 21.5858L23.0001 23L24.4143 24.4142C24.69 24.1386 25.0439 23.965 25.6451 23.965V21.965ZM23.0001 23L21.5859 21.5858C20.4815 22.6901 19.9651 24.0995 19.9651 25.645H21.9651H23.9651C23.9651 25.0439 24.1386 24.6899 24.4143 24.4142L23.0001 23ZM21.9651 25.645H19.9651C19.9651 27.1544 20.5057 28.5081 21.5135 29.6279L23.0001 28.29L24.4867 26.9521C24.1145 26.5386 23.9651 26.1289 23.9651 25.645H21.9651ZM23.0001 28.29L21.6622 29.7766C22.782 30.7844 24.1357 31.325 25.6451 31.325V29.325V27.325C25.1611 27.325 24.7515 27.1756 24.338 26.8034L23.0001 28.29ZM25.6451 29.325V31.325H91.4251V29.325V27.325H25.6451V29.325ZM91.4251 29.325V31.325C94.6829 31.325 97.6983 31.9606 100.494 33.2188L101.315 31.395L102.136 29.5712C98.7986 28.0694 95.2206 27.325 91.4251 27.325V29.325ZM101.315 31.395L100.549 33.2425C103.461 34.45 105.96 36.1083 108.066 38.2142L109.48 36.8L110.894 35.3858C108.4 32.8917 105.455 30.9466 102.081 29.5475L101.315 31.395ZM109.48 36.8L108.089 38.2372C110.264 40.3415 111.951 42.8328 113.153 45.731L115 44.965L116.848 44.199C115.443 40.8105 113.45 37.8585 110.871 35.3628L109.48 36.8ZM115 44.965L113.176 45.7857C114.434 48.5818 115.07 51.5972 115.07 54.855H117.07H119.07C119.07 51.0595 118.326 47.4815 116.824 44.1443L115 44.965ZM117.07 54.855H115.07C115.07 58.1126 114.434 61.1731 113.169 64.056L115 64.86L116.831 65.664C118.326 62.2602 119.07 58.6507 119.07 54.855H117.07ZM115 64.86L113.159 64.0777C111.957 66.9063 110.263 69.4139 108.066 71.6108L109.48 73.025L110.894 74.4392C113.451 71.8828 115.436 68.9471 116.841 65.6423L115 64.86ZM109.48 73.025L108.066 71.6108C105.951 73.7255 103.44 75.428 100.511 76.7137L101.315 78.545L102.119 80.3763C105.477 78.902 108.409 76.9245 110.894 74.4392L109.48 73.025ZM101.315 78.545L100.533 76.7043C97.7278 77.8965 94.6989 78.5 91.4251 78.5V80.5V82.5C95.2046 82.5 98.769 81.8002 102.097 80.3857L101.315 78.545ZM91.4251 80.5V78.5H8.81031e-05V80.5V82.5H91.4251V80.5ZM8.81031e-05 80.5H2.00009V58.535H8.81031e-05H-1.99991V80.5H8.81031e-05ZM8.81031e-05 58.535V60.535H91.4251V58.535V56.535H8.81031e-05V58.535ZM91.4251 58.535V60.535C92.9706 60.535 94.38 60.0186 95.4843 58.9142L94.0701 57.5L92.6559 56.0858C92.3802 56.3614 92.0262 56.535 91.4251 56.535V58.535ZM94.0701 57.5L95.4843 58.9142C96.5583 57.8402 97.1051 56.4844 97.1051 54.97H95.1051H93.1051C93.1051 55.4489 92.9619 55.7798 92.6559 56.0858L94.0701 57.5ZM95.1051 54.97H97.1051C97.1051 53.4245 96.5887 52.0151 95.4843 50.9108L94.0701 52.325L92.6559 53.7392C92.9315 54.0149 93.1051 54.3689 93.1051 54.97H95.1051ZM94.0701 52.325L95.4843 50.9108C94.4183 49.8448 93.0679 49.2872 91.5676 49.1801L91.4251 51.175L91.2826 53.1699C91.929 53.2161 92.3419 53.4252 92.6559 53.7392L94.0701 52.325ZM91.4251 51.175V49.175H25.5301V51.175V53.175H91.4251V51.175ZM25.5301 51.175V49.175C22.2565 49.175 19.1828 48.5715 16.2911 47.3725L15.5251 49.22L14.7591 51.0675C18.1541 52.4752 21.7503 53.175 25.5301 53.175V51.175ZM15.5251 49.22L16.3458 47.3962C13.4926 46.1122 11.0121 44.4086 8.8893 42.2858L7.47509 43.7L6.06088 45.1142C8.53805 47.5914 11.4243 49.5678 14.7044 51.0438L15.5251 49.22ZM7.47509 43.7L8.8893 42.2858C6.76648 40.163 5.0629 37.6825 3.77893 34.8293L1.95509 35.65L0.131245 36.4707C1.60728 39.7508 3.5837 42.637 6.06088 45.1142L7.47509 43.7ZM1.95509 35.65L3.80257 34.884C2.6036 31.9923 2.00009 28.9185 2.00009 25.645H8.81031e-05H-1.99991C-1.99991 29.4248 -1.30009 33.021 0.107604 36.416L1.95509 35.65ZM8.81031e-05 25.645H2.00009C2.00009 22.3712 2.60362 19.3423 3.79575 16.5373L1.95509 15.755L0.114426 14.9727C-1.30011 18.3011 -1.99991 21.8655 -1.99991 25.645H8.81031e-05ZM1.95509 15.755L3.78638 16.559C5.07208 13.6304 6.77463 11.1189 8.8893 9.00421L7.47509 7.59L6.06088 6.17579C3.57555 8.66111 1.5981 11.5929 0.1238 14.951L1.95509 15.755ZM7.47509 7.59L8.8893 9.00421C11.0862 6.80728 13.5938 5.11278 16.4224 3.91066L15.6401 2.07L14.8578 0.229334C11.553 1.63388 8.61728 3.61938 6.06087 6.17579L7.47509 7.59ZM15.6401 2.07L16.4441 3.90128C19.327 2.63562 22.3874 1.99999 25.6451 1.99999V-5.48363e-06V-2.00001C21.8494 -2.00001 18.2399 -1.25563 14.8361 0.238707L15.6401 2.07ZM25.6451 -5.48363e-06V1.99999H117.07V-5.48363e-06V-2.00001H25.6451V-5.48363e-06ZM117.07 -5.48363e-06H115.07V21.965H117.07H119.07V-5.48363e-06H117.07ZM117.07 21.965V19.965H25.6451V21.965V23.965H117.07V21.965ZM121.775 21.965H119.775V23.965H121.775V21.965ZM121.775 -5.48363e-06V-2.00001H119.775V-5.48363e-06H121.775ZM238.845 -5.48363e-06H240.845V-2.00001H238.845V-5.48363e-06ZM238.845 21.965V23.965H240.845V21.965H238.845ZM191.35 21.965V19.965H189.35V21.965H191.35ZM191.35 80.5V82.5H193.35V80.5H191.35ZM169.385 80.5H167.385V82.5H169.385V80.5ZM169.385 21.965H171.385V19.965H169.385V21.965ZM121.775 21.965H123.775V-5.48363e-06H121.775H119.775V21.965H121.775ZM121.775 -5.48363e-06V1.99999H238.845V-5.48363e-06V-2.00001H121.775V-5.48363e-06ZM238.845 -5.48363e-06H236.845V21.965H238.845H240.845V-5.48363e-06H238.845ZM238.845 21.965V19.965H191.35V21.965V23.965H238.845V21.965ZM191.35 21.965H189.35V80.5H191.35H193.35V21.965H191.35ZM191.35 80.5V78.5H169.385V80.5V82.5H191.35V80.5ZM169.385 80.5H171.385V21.965H169.385H167.385V80.5H169.385ZM169.385 21.965V19.965H121.775V21.965V23.965H169.385V21.965ZM256.87 -5.48363e-06V-2.00001H255.47L254.99 -0.684569L256.87 -5.48363e-06ZM315.405 -5.48363e-06L317.285 -0.682198L316.807 -2.00001H315.405V-5.48363e-06ZM344.615 80.5V82.5H347.468L346.495 79.8178L344.615 80.5ZM321.27 80.5L319.389 81.1811L319.867 82.5H321.27V80.5ZM315.98 65.895L317.86 65.2139L317.382 63.895H315.98V65.895ZM264 65.895L262.122 65.2068L261.137 67.895H264V65.895ZM272.05 43.93V41.93H270.653L270.172 43.2418L272.05 43.93ZM307.93 43.93V45.93H310.779L309.811 43.2505L307.93 43.93ZM299.995 21.965L301.876 21.2855L301.399 19.965H299.995V21.965ZM272.165 21.965V19.965H270.764L270.285 21.2818L272.165 21.965ZM250.89 80.5V82.5H252.291L252.769 81.1832L250.89 80.5ZM227.545 80.5L225.665 79.8154L224.688 82.5H227.545V80.5ZM256.87 -5.48363e-06V1.99999H315.405V-5.48363e-06V-2.00001H256.87V-5.48363e-06ZM315.405 -5.48363e-06L313.525 0.682187L342.735 81.1822L344.615 80.5L346.495 79.8178L317.285 -0.682198L315.405 -5.48363e-06ZM344.615 80.5V78.5H321.27V80.5V82.5H344.615V80.5ZM321.27 80.5L323.15 79.8189L317.86 65.2139L315.98 65.895L314.099 66.5761L319.389 81.1811L321.27 80.5ZM315.98 65.895V63.895H264V65.895V67.895H315.98V65.895ZM264 65.895L265.878 66.5832L273.928 44.6182L272.05 43.93L270.172 43.2418L262.122 65.2068L264 65.895ZM272.05 43.93V45.93H307.93V43.93V41.93H272.05V43.93ZM307.93 43.93L309.811 43.2505L301.876 21.2855L299.995 21.965L298.114 22.6445L306.049 44.6095L307.93 43.93ZM299.995 21.965V19.965H272.165V21.965V23.965H299.995V21.965ZM272.165 21.965L270.285 21.2818L249.01 79.8168L250.89 80.5L252.769 81.1832L274.044 22.6482L272.165 21.965ZM250.89 80.5V78.5H227.545V80.5V82.5H250.89V80.5ZM227.545 80.5L229.424 81.1846L258.749 0.684558L256.87 -5.48363e-06L254.99 -0.684569L225.665 79.8154L227.545 80.5ZM371.482 23L372.896 24.4142L372.896 24.4142L371.482 23ZM371.482 28.29L369.995 29.6279L370.065 29.7062L370.144 29.7766L371.482 28.29ZM449.797 31.395L448.976 33.2188L449.003 33.2311L449.031 33.2425L449.797 31.395ZM457.962 36.8L456.547 38.2142L456.559 38.2258L456.571 38.2372L457.962 36.8ZM463.482 44.965L461.634 45.731L461.645 45.7586L461.658 45.7857L463.482 44.965ZM463.482 64.86L461.65 64.056L461.645 64.0668L461.641 64.0777L463.482 64.86ZM457.962 73.025L459.376 74.4392L459.376 74.4392L457.962 73.025ZM449.797 78.545L450.579 80.3857L450.59 80.381L450.601 80.3763L449.797 78.545ZM348.482 80.5H346.482V82.5H348.482V80.5ZM348.482 58.535V56.535H346.482V58.535H348.482ZM442.552 57.5L443.966 58.9142L443.966 58.9142L442.552 57.5ZM442.552 52.325L441.137 53.7392L441.137 53.7392L442.552 52.325ZM439.907 51.175L440.049 49.1801L439.978 49.175H439.907V51.175ZM364.007 49.22L363.186 51.0438L363.213 51.0561L363.241 51.0675L364.007 49.22ZM350.437 35.65L348.589 36.416L348.6 36.4436L348.613 36.4707L350.437 35.65ZM350.437 15.755L348.605 14.951L348.6 14.9618L348.596 14.9727L350.437 15.755ZM355.957 7.59L357.371 9.00421L357.371 9.00421L355.957 7.59ZM364.122 2.07L364.904 3.91066L364.915 3.90603L364.926 3.90128L364.122 2.07ZM465.552 -5.48363e-06H467.552V-2.00001H465.552V-5.48363e-06ZM465.552 21.965V23.965H467.552V21.965H465.552ZM374.127 21.965V19.965C372.581 19.965 371.172 20.4814 370.067 21.5858L371.482 23L372.896 24.4142C373.171 24.1386 373.525 23.965 374.127 23.965V21.965ZM371.482 23L370.067 21.5858C368.963 22.6901 368.447 24.0995 368.447 25.645H370.447H372.447C372.447 25.0439 372.62 24.6899 372.896 24.4142L371.482 23ZM370.447 25.645H368.447C368.447 27.1544 368.987 28.5081 369.995 29.6279L371.482 28.29L372.968 26.9521C372.596 26.5386 372.447 26.1289 372.447 25.645H370.447ZM371.482 28.29L370.144 29.7766C371.263 30.7844 372.617 31.325 374.127 31.325V29.325V27.325C373.643 27.325 373.233 27.1756 372.819 26.8034L371.482 28.29ZM374.127 29.325V31.325H439.907V29.325V27.325H374.127V29.325ZM439.907 29.325V31.325C443.164 31.325 446.18 31.9606 448.976 33.2188L449.797 31.395L450.617 29.5712C447.28 28.0694 443.702 27.325 439.907 27.325V29.325ZM449.797 31.395L449.031 33.2425C451.943 34.45 454.441 36.1083 456.547 38.2142L457.962 36.8L459.376 35.3858C456.882 32.8917 453.937 30.9466 450.563 29.5475L449.797 31.395ZM457.962 36.8L456.571 38.2372C458.745 40.3415 460.432 42.8328 461.634 45.731L463.482 44.965L465.329 44.199C463.924 40.8105 461.931 37.8585 459.352 35.3628L457.962 36.8ZM463.482 44.965L461.658 45.7857C462.916 48.5818 463.552 51.5972 463.552 54.855H465.552H467.552C467.552 51.0595 466.807 47.4815 465.305 44.1443L463.482 44.965ZM465.552 54.855H463.552C463.552 58.1126 462.916 61.1731 461.65 64.056L463.482 64.86L465.313 65.664C466.807 62.2602 467.552 58.6507 467.552 54.855H465.552ZM463.482 64.86L461.641 64.0777C460.439 66.9063 458.744 69.4139 456.547 71.6108L457.962 73.025L459.376 74.4392C461.932 71.8828 463.918 68.9471 465.322 65.6423L463.482 64.86ZM457.962 73.025L456.547 71.6108C454.433 73.7255 451.921 75.428 448.993 76.7137L449.797 78.545L450.601 80.3763C453.959 78.902 456.89 76.9245 459.376 74.4392L457.962 73.025ZM449.797 78.545L449.014 76.7043C446.209 77.8965 443.18 78.5 439.907 78.5V80.5V82.5C443.686 82.5 447.25 81.8002 450.579 80.3857L449.797 78.545ZM439.907 80.5V78.5H348.482V80.5V82.5H439.907V80.5ZM348.482 80.5H350.482V58.535H348.482H346.482V80.5H348.482ZM348.482 58.535V60.535H439.907V58.535V56.535H348.482V58.535ZM439.907 58.535V60.535C441.452 60.535 442.861 60.0186 443.966 58.9142L442.552 57.5L441.137 56.0858C440.862 56.3614 440.508 56.535 439.907 56.535V58.535ZM442.552 57.5L443.966 58.9142C445.04 57.8402 445.587 56.4844 445.587 54.97H443.587H441.587C441.587 55.4489 441.443 55.7798 441.137 56.0858L442.552 57.5ZM443.587 54.97H445.587C445.587 53.4245 445.07 52.0151 443.966 50.9108L442.552 52.325L441.137 53.7392C441.413 54.0149 441.587 54.3689 441.587 54.97H443.587ZM442.552 52.325L443.966 50.9108C442.9 49.8448 441.549 49.2872 440.049 49.1801L439.907 51.175L439.764 53.1699C440.41 53.2161 440.823 53.4252 441.137 53.7392L442.552 52.325ZM439.907 51.175V49.175H374.012V51.175V53.175H439.907V51.175ZM374.012 51.175V49.175C370.738 49.175 367.664 48.5715 364.773 47.3725L364.007 49.22L363.241 51.0675C366.636 52.4752 370.232 53.175 374.012 53.175V51.175ZM364.007 49.22L364.827 47.3962C361.974 46.1122 359.494 44.4086 357.371 42.2858L355.957 43.7L354.542 45.1142C357.019 47.5914 359.906 49.5678 363.186 51.0438L364.007 49.22ZM355.957 43.7L357.371 42.2858C355.248 40.163 353.544 37.6825 352.26 34.8293L350.437 35.65L348.613 36.4707C350.089 39.7508 352.065 42.637 354.542 45.1142L355.957 43.7ZM350.437 35.65L352.284 34.884C351.085 31.9923 350.482 28.9185 350.482 25.645H348.482H346.482C346.482 29.4248 347.181 33.021 348.589 36.416L350.437 35.65ZM348.482 25.645H350.482C350.482 22.3712 351.085 19.3423 352.277 16.5373L350.437 15.755L348.596 14.9727C347.181 18.3011 346.482 21.8655 346.482 25.645H348.482ZM350.437 15.755L352.268 16.559C353.554 13.6304 355.256 11.1189 357.371 9.00421L355.957 7.59L354.542 6.17579C352.057 8.66111 350.08 11.5929 348.605 14.951L350.437 15.755ZM355.957 7.59L357.371 9.00421C359.568 6.80728 362.075 5.11278 364.904 3.91066L364.122 2.07L363.339 0.229334C360.034 1.63388 357.099 3.61938 354.542 6.17579L355.957 7.59ZM364.122 2.07L364.926 3.90128C367.808 2.63562 370.869 1.99999 374.127 1.99999V-5.48363e-06V-2.00001C370.331 -2.00001 366.721 -1.25563 363.318 0.238707L364.122 2.07ZM374.127 -5.48363e-06V1.99999H465.552V-5.48363e-06V-2.00001H374.127V-5.48363e-06ZM465.552 -5.48363e-06H463.552V21.965H465.552H467.552V-5.48363e-06H465.552ZM465.552 21.965V19.965H374.127V21.965V23.965H465.552V21.965ZM497.282 -5.48363e-06H499.282V-2.00001H497.282V-5.48363e-06ZM497.282 80.5V82.5H499.282V80.5H497.282ZM475.317 80.5H473.317V82.5H475.317V80.5ZM475.317 -5.48363e-06V-2.00001H473.317V-5.48363e-06H475.317ZM497.282 -5.48363e-06H495.282V80.5H497.282H499.282V-5.48363e-06H497.282ZM497.282 80.5V78.5H475.317V80.5V82.5H497.282V80.5ZM475.317 80.5H477.317V-5.48363e-06H475.317H473.317V80.5H475.317ZM475.317 -5.48363e-06V1.99999H497.282V-5.48363e-06V-2.00001H475.317V-5.48363e-06ZM529.943 23L531.358 24.4142L531.358 24.4142L529.943 23ZM529.943 28.29L528.457 29.6279L528.527 29.7062L528.606 29.7766L529.943 28.29ZM608.258 31.395L607.438 33.2188L607.465 33.2311L607.492 33.2425L608.258 31.395ZM616.423 36.8L615.009 38.2142L615.021 38.2258L615.033 38.2372L616.423 36.8ZM621.943 44.965L620.096 45.731L620.107 45.7586L620.12 45.7857L621.943 44.965ZM621.943 64.86L620.112 64.056L620.107 64.0668L620.103 64.0777L621.943 64.86ZM616.423 73.025L617.838 74.4392L617.838 74.4392L616.423 73.025ZM608.258 78.545L609.041 80.3857L609.052 80.381L609.062 80.3763L608.258 78.545ZM506.943 80.5H504.943V82.5H506.943V80.5ZM506.943 58.535V56.535H504.943V58.535H506.943ZM601.013 57.5L602.428 58.9142L602.428 58.9142L601.013 57.5ZM601.013 52.325L599.599 53.7392L599.599 53.7392L601.013 52.325ZM598.368 51.175L598.511 49.1801L598.44 49.175H598.368V51.175ZM522.468 49.22L521.648 51.0438L521.675 51.0561L521.702 51.0675L522.468 49.22ZM508.898 35.65L507.051 36.416L507.062 36.4436L507.075 36.4707L508.898 35.65ZM508.898 15.755L507.067 14.951L507.062 14.9618L507.058 14.9727L508.898 15.755ZM514.418 7.59L515.833 9.00421L515.833 9.00421L514.418 7.59ZM522.583 2.07L523.366 3.91066L523.377 3.90603L523.387 3.90128L522.583 2.07ZM624.013 -5.48363e-06H626.013V-2.00001H624.013V-5.48363e-06ZM624.013 21.965V23.965H626.013V21.965H624.013ZM532.588 21.965V19.965C531.043 19.965 529.634 20.4814 528.529 21.5858L529.943 23L531.358 24.4142C531.633 24.1386 531.987 23.965 532.588 23.965V21.965ZM529.943 23L528.529 21.5858C527.425 22.6901 526.908 24.0995 526.908 25.645H528.908H530.908C530.908 25.0439 531.082 24.6899 531.358 24.4142L529.943 23ZM528.908 25.645H526.908C526.908 27.1544 527.449 28.5081 528.457 29.6279L529.943 28.29L531.43 26.9521C531.058 26.5386 530.908 26.1289 530.908 25.645H528.908ZM529.943 28.29L528.606 29.7766C529.725 30.7844 531.079 31.325 532.588 31.325V29.325V27.325C532.104 27.325 531.695 27.1756 531.281 26.8034L529.943 28.29ZM532.588 29.325V31.325H598.368V29.325V27.325H532.588V29.325ZM598.368 29.325V31.325C601.626 31.325 604.642 31.9606 607.438 33.2188L608.258 31.395L609.079 29.5712C605.742 28.0694 602.164 27.325 598.368 27.325V29.325ZM608.258 31.395L607.492 33.2425C610.405 34.45 612.903 36.1083 615.009 38.2142L616.423 36.8L617.838 35.3858C615.344 32.8917 612.399 30.9466 609.024 29.5475L608.258 31.395ZM616.423 36.8L615.033 38.2372C617.207 40.3415 618.894 42.8328 620.096 45.731L621.943 44.965L623.791 44.199C622.386 40.8105 620.393 37.8585 617.814 35.3628L616.423 36.8ZM621.943 44.965L620.12 45.7857C621.378 48.5818 622.013 51.5972 622.013 54.855H624.013H626.013C626.013 51.0595 625.269 47.4815 623.767 44.1443L621.943 44.965ZM624.013 54.855H622.013C622.013 58.1126 621.378 61.1731 620.112 64.056L621.943 64.86L623.775 65.664C625.269 62.2602 626.013 58.6507 626.013 54.855H624.013ZM621.943 64.86L620.103 64.0777C618.901 66.9063 617.206 69.4139 615.009 71.6108L616.423 73.025L617.838 74.4392C620.394 71.8828 622.38 68.9471 623.784 65.6423L621.943 64.86ZM616.423 73.025L615.009 71.6108C612.895 73.7255 610.383 75.428 607.454 76.7137L608.258 78.545L609.062 80.3763C612.421 78.902 615.352 76.9245 617.838 74.4392L616.423 73.025ZM608.258 78.545L607.476 76.7043C604.671 77.8965 601.642 78.5 598.368 78.5V80.5V82.5C602.148 82.5 605.712 81.8002 609.041 80.3857L608.258 78.545ZM598.368 80.5V78.5H506.943V80.5V82.5H598.368V80.5ZM506.943 80.5H508.943V58.535H506.943H504.943V80.5H506.943ZM506.943 58.535V60.535H598.368V58.535V56.535H506.943V58.535ZM598.368 58.535V60.535C599.914 60.535 601.323 60.0186 602.428 58.9142L601.013 57.5L599.599 56.0858C599.324 56.3614 598.97 56.535 598.368 56.535V58.535ZM601.013 57.5L602.428 58.9142C603.502 57.8402 604.048 56.4844 604.048 54.97H602.048H600.048C600.048 55.4489 599.905 55.7798 599.599 56.0858L601.013 57.5ZM602.048 54.97H604.048C604.048 53.4245 603.532 52.0151 602.428 50.9108L601.013 52.325L599.599 53.7392C599.875 54.0149 600.048 54.3689 600.048 54.97H602.048ZM601.013 52.325L602.428 50.9108C601.362 49.8448 600.011 49.2872 598.511 49.1801L598.368 51.175L598.226 53.1699C598.872 53.2161 599.285 53.4252 599.599 53.7392L601.013 52.325ZM598.368 51.175V49.175H532.473V51.175V53.175H598.368V51.175ZM532.473 51.175V49.175C529.2 49.175 526.126 48.5715 523.234 47.3725L522.468 49.22L521.702 51.0675C525.097 52.4752 528.694 53.175 532.473 53.175V51.175ZM522.468 49.22L523.289 47.3962C520.436 46.1122 517.955 44.4086 515.833 42.2858L514.418 43.7L513.004 45.1142C515.481 47.5914 518.368 49.5678 521.648 51.0438L522.468 49.22ZM514.418 43.7L515.833 42.2858C513.71 40.163 512.006 37.6825 510.722 34.8293L508.898 35.65L507.075 36.4707C508.551 39.7508 510.527 42.637 513.004 45.1142L514.418 43.7ZM508.898 35.65L510.746 34.884C509.547 31.9923 508.943 28.9185 508.943 25.645H506.943H504.943C504.943 29.4248 505.643 33.021 507.051 36.416L508.898 35.65ZM506.943 25.645H508.943C508.943 22.3712 509.547 19.3423 510.739 16.5373L508.898 15.755L507.058 14.9727C505.643 18.3011 504.943 21.8655 504.943 25.645H506.943ZM508.898 15.755L510.73 16.559C512.015 13.6304 513.718 11.1189 515.833 9.00421L514.418 7.59L513.004 6.17579C510.519 8.66111 508.541 11.5929 507.067 14.951L508.898 15.755ZM514.418 7.59L515.833 9.00421C518.03 6.80728 520.537 5.11278 523.366 3.91066L522.583 2.07L521.801 0.229334C518.496 1.63388 515.561 3.61938 513.004 6.17579L514.418 7.59ZM522.583 2.07L523.387 3.90128C526.27 2.63562 529.331 1.99999 532.588 1.99999V-5.48363e-06V-2.00001C528.793 -2.00001 525.183 -1.25563 521.779 0.238707L522.583 2.07ZM532.588 -5.48363e-06V1.99999H624.013V-5.48363e-06V-2.00001H532.588V-5.48363e-06ZM624.013 -5.48363e-06H622.013V21.965H624.013H626.013V-5.48363e-06H624.013ZM624.013 21.965V19.965H532.588V21.965V23.965H624.013V21.965Z" fill="#443C38" mask="url(#path-1-inside-1_397_2087)"/>
</svg>
