<?xml version="1.0" encoding="UTF-8" standalone="no"?>
<svg
   width="613.92798"
   height="124.054"
   viewBox="0 0 613.92798 124.054"
   fill="none"
   version="1.1"
   id="svg2"
   xmlns="http://www.w3.org/2000/svg"
   xmlns:svg="http://www.w3.org/2000/svg">
  <defs
     id="defs2" />
  <path
     d="m 105.785,74.345 c -0.911,0 -1.66,0.293 -2.246,0.8789 -0.586,0.586 -0.879,1.3347 -0.879,2.2462 0,0.8464 0.293,1.5951 0.879,2.2462 0.651,0.5859 1.4,0.8789 2.246,0.8789 h 55.861 c 2.995,0 5.795,0.5859 8.399,1.7579 2.67,1.1068 4.981,2.6368 6.934,4.59 2.018,1.9532 3.581,4.2644 4.688,6.9338 1.172,2.6043 1.758,5.4038 1.758,8.3991 0,2.995 -0.586,5.827 -1.758,8.496 -1.107,2.604 -2.67,4.916 -4.688,6.934 -1.953,1.953 -4.264,3.516 -6.934,4.687 -2.604,1.107 -5.404,1.661 -8.399,1.661 H 84.0071 v -18.653 h 77.6389 c 0.912,0 1.661,-0.293 2.247,-0.879 0.586,-0.586 0.879,-1.302 0.879,-2.149 0,-0.911 -0.293,-1.66 -0.879,-2.246 -0.586,-0.5858 -1.335,-0.9114 -2.247,-0.9765 h -55.958 c -2.995,0 -5.8275,-0.5534 -8.4969,-1.6602 -2.6042,-1.1719 -4.883,-2.7345 -6.8362,-4.6877 -1.9531,-1.9532 -3.5157,-4.2319 -4.6876,-6.8361 -1.1068,-2.6694 -1.6602,-5.5015 -1.6602,-8.4964 0,-2.9949 0.5534,-5.7945 1.6602,-8.3987 1.1719,-2.6694 2.7345,-4.9807 4.6876,-6.9339 2.0183,-2.0183 4.3296,-3.5808 6.9339,-4.6876 2.6693,-1.172 5.5012,-1.7579 8.4962,-1.7579 h 77.64 v 18.653 z m 81.635,0 V 55.692 h 99.418 v 18.653 h -40.334 v 49.709 H 227.851 V 74.345 Z M 302.144,55.692 h 49.709 l 24.806,68.362 h -19.825 l -4.493,-12.403 h -44.142 l 6.836,-18.653 h 30.47 l -6.738,-18.653 h -23.634 l -18.067,49.709 h -19.825 z m 99.576,18.653 c -0.911,0 -1.66,0.293 -2.246,0.8789 -0.586,0.586 -0.879,1.3347 -0.879,2.2462 0,0.8464 0.293,1.5951 0.879,2.2462 0.651,0.5859 1.4,0.8789 2.246,0.8789 h 55.862 c 2.995,0 5.794,0.5859 8.398,1.7579 2.67,1.1068 4.981,2.6368 6.934,4.59 2.019,1.9532 3.581,4.2644 4.688,6.9338 1.172,2.6043 1.758,5.4038 1.758,8.3991 0,2.995 -0.586,5.827 -1.758,8.496 -1.107,2.604 -2.669,4.916 -4.688,6.934 -1.953,1.953 -4.264,3.516 -6.934,4.687 -2.604,1.107 -5.403,1.661 -8.398,1.661 h -77.64 v -18.653 h 77.64 c 0.911,0 1.66,-0.293 2.246,-0.879 0.586,-0.586 0.879,-1.302 0.879,-2.149 0,-0.911 -0.293,-1.66 -0.879,-2.246 -0.586,-0.5858 -1.335,-0.9114 -2.246,-0.9765 h -55.959 c -2.995,0 -5.827,-0.5534 -8.497,-1.6602 -2.604,-1.1719 -4.883,-2.7345 -6.836,-4.6877 -1.953,-1.9532 -3.516,-4.2319 -4.687,-6.8361 -1.107,-2.6694 -1.661,-5.5015 -1.661,-8.4964 0,-2.9949 0.554,-5.7945 1.661,-8.3987 1.171,-2.6694 2.734,-4.9807 4.687,-6.9339 2.019,-2.0183 4.33,-3.5808 6.934,-4.6876 2.669,-1.172 5.502,-1.7579 8.496,-1.7579 h 77.64 V 74.345 Z M 506.305,55.692 v 68.362 H 487.652 V 55.692 Z m 29.983,18.653 c -0.911,0 -1.66,0.293 -2.246,0.8789 -0.586,0.586 -0.879,1.3347 -0.879,2.2462 0,0.8464 0.293,1.5951 0.879,2.2462 0.651,0.5859 1.4,0.8789 2.246,0.8789 h 55.862 c 2.995,0 5.794,0.5859 8.399,1.7579 2.669,1.1068 4.98,2.6368 6.933,4.59 2.019,1.9532 3.581,4.2644 4.688,6.9338 1.172,2.6043 1.758,5.4038 1.758,8.3991 0,2.995 -0.586,5.827 -1.758,8.496 -1.107,2.604 -2.669,4.916 -4.688,6.934 -1.953,1.953 -4.264,3.516 -6.933,4.687 -2.605,1.107 -5.404,1.661 -8.399,1.661 h -77.64 v -18.653 h 77.64 c 0.911,0 1.66,-0.293 2.246,-0.879 0.586,-0.586 0.879,-1.302 0.879,-2.149 0,-0.911 -0.293,-1.66 -0.879,-2.246 -0.586,-0.5858 -1.335,-0.9114 -2.246,-0.9765 h -55.959 c -2.995,0 -5.827,-0.5534 -8.497,-1.6602 -2.604,-1.1719 -4.883,-2.7345 -6.836,-4.6877 -1.953,-1.9532 -3.515,-4.2319 -4.687,-6.8361 -1.107,-2.6694 -1.661,-5.5015 -1.661,-8.4964 0,-2.9949 0.554,-5.7945 1.661,-8.3987 1.172,-2.6694 2.734,-4.9807 4.687,-6.9339 2.019,-2.0183 4.33,-3.5808 6.934,-4.6876 2.669,-1.172 5.502,-1.7579 8.496,-1.7579 h 77.64 v 18.653 z"
     fill="#443c38"
     id="path1" />
  <path
     d="m 66.9092,0 c 0.1687,4.23103 0.583,7.32266 1.5146,10.0615 3.1129,9.1514 10.2237,16.3871 19.3194,19.6592 5.0781,1.8268 11.4144,1.8826 24.0868,1.9932 l 341.822,2.9824 c 1.005,0.0088 1.969,0.0162 2.897,0.0234 -0.927,0.0072 -1.892,0.0147 -2.897,0.0235 L 111.83,37.7256 C 99.1576,37.8362 92.8213,37.892 87.7432,39.7188 78.6475,42.9908 71.5367,50.2266 68.4238,59.3779 67.4923,62.1166 67.078,65.208 66.9092,69.4385 66.7358,64.6767 66.3108,61.3033 65.2881,58.3232 62.117,49.0836 54.9628,41.6514 45.8506,38.1309 40.7642,36.1657 34.432,35.9379 21.7686,35.4824 L 7.51074,34.9688 C 4.71729,34.8683 2.23192,34.7799 0,34.7188 2.23191,34.6576 4.7173,34.5702 7.51074,34.4697 L 21.7686,33.957 C 34.432,33.5015 40.7642,33.2737 45.8506,31.3086 54.9628,27.7881 62.1169,20.3557 65.2881,11.1162 66.3109,8.13604 66.7358,4.7621 66.9092,0 Z"
     fill="#d95d39"
     id="path2" />
</svg>
